M48
; DRILL file KiCad 10.0.2 date 2026-09-19T15:06:44
; FORMAT={-:-/ absolute / metric / decimal}
; #@! TF.CreationDate,2026-09-19T15:06:44-04:00
; #@! TF.GenerationSoftware,Kicad,Pcbnew,10.0.2
; #@! TF.FileFunction,Plated,1,2,PTH
FMAT,2
METRIC
; #@! TA.AperFunction,Plated,PTH,ViaDrill
T1C0.300
; #@! TA.AperFunction,Plated,PTH,ComponentDrill
T2C0.300
; #@! TA.AperFunction,Plated,PTH,ComponentDrill
T3C0.600
; #@! TA.AperFunction,Plated,PTH,ComponentDrill
T4C1.000
%
G90
G05
T1
X101.15Y-62.95
X101.15Y-64.75
X101.15Y-66.55
X101.15Y-68.35
X101.15Y-70.15
X101.15Y-71.95
X101.15Y-95.35
X101.15Y-106.15
X101.15Y-107.95
X101.15Y-109.75
X101.15Y-111.55
X101.15Y-113.35
X101.15Y-115.15
X101.955Y-102.998
X102.485Y-104.455
X102.95Y-95.35
X102.95Y-97.15
X102.95Y-106.15
X102.95Y-107.95
X102.95Y-109.75
X102.95Y-111.55
X102.95Y-113.35
X102.95Y-115.15
X103.008Y-101.195
X103.075Y-72.745
X103.8Y-76.022
X104.75Y-62.95
X104.75Y-64.75
X104.75Y-66.55
X104.75Y-68.35
X104.75Y-93.55
X104.75Y-95.35
X104.75Y-98.95
X104.75Y-104.35
X104.75Y-107.95
X104.75Y-109.75
X104.75Y-115.15
X104.87Y-97.645
X105.09Y-112.3
X105.289Y-73.593
X105.967Y-75.535
X106.157Y-99.945
X106.164Y-77.853
X106.485Y-72.455
X106.485Y-74.455
X106.55Y-107.95
X106.55Y-109.75
X106.55Y-111.55
X106.55Y-113.35
X106.55Y-115.15
X106.725Y-62.97
X106.925Y-68.45
X107.025Y-92.418
X107.025Y-93.46
X107.025Y-94.502
X107.025Y-95.544
X107.175Y-67.467
X107.736Y-71.173
X108.028Y-85.864
X108.245Y-96.82
X108.35Y-107.95
X108.35Y-109.75
X108.35Y-111.55
X108.35Y-113.35
X108.35Y-115.15
X109.029Y-103.343
X109.64Y-85.504
X110.15Y-107.95
X110.15Y-109.75
X110.15Y-111.55
X110.15Y-113.35
X110.15Y-115.15
X110.471Y-89.831
X110.471Y-90.814
X110.471Y-91.798
X110.494Y-72.49
X110.496Y-75.215
X110.871Y-76.899
X111.338Y-88.847
X111.338Y-90.814
X111.345Y-92.795
X111.39Y-80.972
X111.95Y-89.95
X111.95Y-91.75
X111.95Y-107.95
X111.95Y-109.75
X111.95Y-111.55
X111.95Y-113.35
X111.95Y-115.15
X112.205Y-88.355
X112.205Y-90.814
X112.383Y-97.088
X112.482Y-95.732
X112.566Y-73.582
X112.637Y-86.839
X112.745Y-100.475
X112.974Y-85.305
X113.553Y-74.403
X113.75Y-62.95
X113.75Y-64.75
X113.75Y-66.55
X113.75Y-68.35
X113.75Y-70.15
X113.75Y-107.95
X113.75Y-109.75
X113.75Y-111.55
X113.75Y-113.35
X113.75Y-115.15
X114.119Y-105.433
X114.369Y-82.026
X114.68Y-74.403
X114.749Y-80.22
X115.214Y-81.457
X115.216Y-76.337
X115.216Y-102.998
X115.508Y-101.195
X115.55Y-62.95
X115.55Y-64.75
X115.55Y-91.75
X115.55Y-98.95
X115.55Y-107.95
X115.55Y-109.75
X115.55Y-111.55
X115.55Y-113.35
X115.55Y-115.15
X115.662Y-89.95
X115.996Y-76.965
X116.377Y-80.47
X116.565Y-84.415
X117.045Y-92.171
X117.35Y-62.95
X117.35Y-64.75
X117.35Y-98.95
X117.35Y-107.95
X117.35Y-109.75
X117.35Y-115.15
X117.89Y-112.3
X118.25Y-68.91
X118.447Y-81.452
X118.696Y-96.297
X118.958Y-80.731
X119.15Y-62.95
X119.15Y-64.75
X119.15Y-106.15
X119.15Y-107.95
X119.15Y-109.75
X119.15Y-111.55
X119.15Y-113.35
X119.15Y-115.15
X119.662Y-89.95
X120.055Y-95.425
X120.95Y-62.95
X120.95Y-64.75
X120.95Y-104.35
X120.95Y-106.15
X120.95Y-107.95
X120.95Y-109.75
X120.95Y-111.55
X121.065Y-113.915
X121.674Y-92.127
X122.283Y-100.92
X122.722Y-92.127
X122.75Y-62.95
X122.75Y-64.75
X122.75Y-104.35
X122.75Y-106.15
X122.75Y-107.95
X122.75Y-109.75
X123.52Y-93.355
X123.637Y-110.544
X123.69Y-86.697
X123.823Y-88.103
X123.852Y-84.563
X124.046Y-111.253
X124.112Y-113.965
X124.55Y-62.95
X124.55Y-64.75
X124.55Y-115.15
X125.56Y-108.932
X126.176Y-102.582
X126.35Y-115.15
X126.485Y-103.455
X126.508Y-106.695
X126.81Y-93.327
X126.996Y-108.755
X128.15Y-115.15
X128.366Y-76.548
X128.857Y-108.658
X129.225Y-85.956
X129.647Y-107.425
X129.95Y-104.35
X129.95Y-115.15
X130.021Y-72.592
X130.244Y-71.368
X130.52Y-82.413
X130.651Y-110.058
X131.09Y-110.755
X131.255Y-106.203
X131.75Y-62.95
X131.75Y-64.75
X131.75Y-66.55
X131.75Y-109.75
X132.178Y-102.095
X133.225Y-62.97
X133.425Y-68.45
X133.55Y-64.75
X133.55Y-66.55
X133.55Y-91.75
X133.55Y-93.55
X133.55Y-95.35
X133.55Y-97.15
X133.55Y-98.95
X133.55Y-100.75
X133.55Y-102.55
X133.55Y-104.35
X133.55Y-109.75
X133.55Y-111.55
X134.565Y-113.915
T2
X115.05Y-68.21
X115.05Y-69.61
X115.75Y-67.51
X115.75Y-68.91
X115.75Y-70.31
X116.45Y-68.21
X116.45Y-69.61
X117.15Y-67.51
X117.15Y-68.91
X117.15Y-70.31
X117.85Y-68.21
X117.85Y-69.61
T4
X102.45Y-78.45
X102.45Y-80.99
X102.45Y-83.53
X102.45Y-86.07
X102.45Y-88.61
X102.45Y-91.15
X102.45Y-93.69
X131.35Y-83.95
X131.35Y-86.49
X131.35Y-89.03
X131.35Y-91.57
T3
X104.59Y-105.15G85X104.59Y-107.05
G05
X117.39Y-105.15G85X117.39Y-107.05
G05
X123.02Y-111.12G85X123.02Y-112.22
G05
X123.02Y-115.55G85X123.02Y-116.15
G05
X131.66Y-111.12G85X131.66Y-112.22
G05
X131.66Y-115.55G85X131.66Y-116.15
G05
M30
