%TF.GenerationSoftware,KiCad,Pcbnew,10.0.2*%
%TF.CreationDate,2026-09-19T15:06:44-04:00*%
%TF.ProjectId,ups-adaptor,7570732d-6164-4617-9074-6f722e6b6963,rev?*%
%TF.SameCoordinates,Original*%
%TF.FileFunction,Soldermask,Top*%
%TF.FilePolarity,Negative*%
%FSLAX46Y46*%
G04 Gerber Fmt 4.6, Leading zero omitted, Abs format (unit mm)*
G04 Created by KiCad (PCBNEW 10.0.2) date 2026-09-19 15:06:44*
%MOMM*%
%LPD*%
G01*
G04 APERTURE LIST*
G04 Aperture macros list*
%AMRoundRect*
0 Rectangle with rounded corners*
0 $1 Rounding radius*
0 $2 $3 $4 $5 $6 $7 $8 $9 X,Y pos of 4 corners*
0 Add a 4 corners polygon primitive as box body*
4,1,4,$2,$3,$4,$5,$6,$7,$8,$9,$2,$3,0*
0 Add four circle primitives for the rounded corners*
1,1,$1+$1,$2,$3*
1,1,$1+$1,$4,$5*
1,1,$1+$1,$6,$7*
1,1,$1+$1,$8,$9*
0 Add four rect primitives between the rounded corners*
20,1,$1+$1,$2,$3,$4,$5,0*
20,1,$1+$1,$4,$5,$6,$7,0*
20,1,$1+$1,$6,$7,$8,$9,0*
20,1,$1+$1,$8,$9,$2,$3,0*%
G04 Aperture macros list end*
%ADD10RoundRect,0.050000X-0.750000X-0.450000X0.750000X-0.450000X0.750000X0.450000X-0.750000X0.450000X0*%
%ADD11RoundRect,0.050000X0.750000X0.450000X-0.750000X0.450000X-0.750000X-0.450000X0.750000X-0.450000X0*%
%ADD12RoundRect,0.050000X-0.450000X0.750000X-0.450000X-0.750000X0.450000X-0.750000X0.450000X0.750000X0*%
%ADD13C,0.700000*%
%ADD14RoundRect,0.050000X-1.950000X1.950000X-1.950000X-1.950000X1.950000X-1.950000X1.950000X1.950000X0*%
%ADD15RoundRect,0.275000X0.500000X-0.275000X0.500000X0.275000X-0.500000X0.275000X-0.500000X-0.275000X0*%
%ADD16RoundRect,0.271739X0.678261X-0.353261X0.678261X0.353261X-0.678261X0.353261X-0.678261X-0.353261X0*%
%ADD17RoundRect,0.160000X-0.160000X-0.210000X0.160000X-0.210000X0.160000X0.210000X-0.160000X0.210000X0*%
%ADD18RoundRect,0.165000X-0.165000X-0.195000X0.165000X-0.195000X0.165000X0.195000X-0.165000X0.195000X0*%
%ADD19RoundRect,0.175000X0.175000X-0.850000X0.175000X0.850000X-0.175000X0.850000X-0.175000X-0.850000X0*%
%ADD20RoundRect,0.050000X0.375000X-0.500000X0.375000X0.500000X-0.375000X0.500000X-0.375000X-0.500000X0*%
%ADD21RoundRect,0.050000X-0.850000X-0.850000X0.850000X-0.850000X0.850000X0.850000X-0.850000X0.850000X0*%
%ADD22C,1.800000*%
%ADD23RoundRect,0.165000X0.195000X-0.165000X0.195000X0.165000X-0.195000X0.165000X-0.195000X-0.165000X0*%
%ADD24RoundRect,0.243750X-0.243750X-0.281250X0.243750X-0.281250X0.243750X0.281250X-0.243750X0.281250X0*%
%ADD25RoundRect,0.160000X0.210000X-0.160000X0.210000X0.160000X-0.210000X0.160000X-0.210000X-0.160000X0*%
%ADD26RoundRect,0.271739X-0.353261X-0.678261X0.353261X-0.678261X0.353261X0.678261X-0.353261X0.678261X0*%
%ADD27RoundRect,0.175000X-0.537500X-0.175000X0.537500X-0.175000X0.537500X0.175000X-0.537500X0.175000X0*%
%ADD28RoundRect,0.200000X-0.200000X-0.650000X0.200000X-0.650000X0.200000X0.650000X-0.200000X0.650000X0*%
%ADD29O,1.300000X3.200000*%
%ADD30RoundRect,0.325000X-0.325000X-0.995000X0.325000X-0.995000X0.325000X0.995000X-0.325000X0.995000X0*%
%ADD31RoundRect,0.175000X-0.612500X-0.175000X0.612500X-0.175000X0.612500X0.175000X-0.612500X0.175000X0*%
%ADD32C,0.750000*%
%ADD33RoundRect,0.175000X-0.175000X-0.600000X0.175000X-0.600000X0.175000X0.600000X-0.175000X0.600000X0*%
%ADD34RoundRect,0.100000X-0.100000X-0.675000X0.100000X-0.675000X0.100000X0.675000X-0.100000X0.675000X0*%
%ADD35O,1.100000X2.200000*%
%ADD36O,1.100000X1.700000*%
%ADD37RoundRect,0.400000X-0.650000X-0.400000X0.650000X-0.400000X0.650000X0.400000X-0.650000X0.400000X0*%
%ADD38RoundRect,0.525000X-0.525000X-1.425000X0.525000X-1.425000X0.525000X1.425000X-0.525000X1.425000X0*%
%ADD39RoundRect,0.270000X-0.405000X-0.655000X0.405000X-0.655000X0.405000X0.655000X-0.405000X0.655000X0*%
%ADD40RoundRect,0.275000X-0.275000X-0.500000X0.275000X-0.500000X0.275000X0.500000X-0.275000X0.500000X0*%
%ADD41RoundRect,0.175000X0.175000X-0.612500X0.175000X0.612500X-0.175000X0.612500X-0.175000X-0.612500X0*%
G04 APERTURE END LIST*
D10*
%TO.C,U1*%
X109200000Y-61190000D03*
X109200000Y-62460000D03*
X109200000Y-63730000D03*
X109200000Y-65000000D03*
X109200000Y-66270000D03*
X109200000Y-67540000D03*
X109200000Y-68810000D03*
X109200000Y-70080000D03*
X109200000Y-71350000D03*
X109200000Y-72620000D03*
X109200000Y-73890000D03*
X109200000Y-75160000D03*
X109200000Y-76430000D03*
D11*
X109200000Y-77700000D03*
D12*
X110965000Y-78950000D03*
X112235000Y-78950000D03*
X113505000Y-78950000D03*
X114775000Y-78950000D03*
X116045000Y-78950000D03*
X117315000Y-78950000D03*
X118585000Y-78950000D03*
X119855000Y-78950000D03*
X121125000Y-78950000D03*
X122395000Y-78950000D03*
X123665000Y-78950000D03*
X124935000Y-78950000D03*
D10*
X126700000Y-77700000D03*
X126700000Y-76430000D03*
X126700000Y-75160000D03*
X126700000Y-73890000D03*
X126700000Y-72620000D03*
X126700000Y-71350000D03*
X126700000Y-70080000D03*
X126700000Y-68810000D03*
X126700000Y-67540000D03*
X126700000Y-66270000D03*
X126700000Y-65000000D03*
X126700000Y-63730000D03*
X126700000Y-62460000D03*
X126700000Y-61190000D03*
D13*
X115050000Y-68210000D03*
X115050000Y-69610000D03*
X115750000Y-67510000D03*
X115750000Y-68910000D03*
X115750000Y-70310000D03*
X116450000Y-68210000D03*
D14*
X116450000Y-68910000D03*
D13*
X116450000Y-69610000D03*
X117150000Y-67510000D03*
X117150000Y-68910000D03*
X117150000Y-70310000D03*
X117850000Y-68210000D03*
X117850000Y-69610000D03*
%TD*%
D15*
%TO.C,C5*%
X102575000Y-74645000D03*
X102575000Y-72745000D03*
%TD*%
D16*
%TO.C,C2*%
X107745000Y-99770000D03*
X107745000Y-96820000D03*
%TD*%
D17*
%TO.C,R1*%
X123015000Y-89965000D03*
X124035000Y-89965000D03*
%TD*%
D18*
%TO.C,C9*%
X105025000Y-74455000D03*
X105985000Y-74455000D03*
%TD*%
D19*
%TO.C,U2*%
X121850000Y-100670000D03*
X123120000Y-100670000D03*
X124390000Y-100670000D03*
X125660000Y-100670000D03*
X126930000Y-100670000D03*
X128200000Y-100670000D03*
X129470000Y-100670000D03*
X130740000Y-100670000D03*
X130740000Y-95720000D03*
X129470000Y-95720000D03*
X128200000Y-95720000D03*
X126930000Y-95720000D03*
X125660000Y-95720000D03*
X124390000Y-95720000D03*
X123120000Y-95720000D03*
X121850000Y-95720000D03*
%TD*%
D20*
%TO.C,SW1*%
X102675000Y-68450000D03*
X102675000Y-62450000D03*
X106425000Y-68450000D03*
X106425000Y-62450000D03*
%TD*%
D21*
%TO.C,J5*%
X102450000Y-78450000D03*
D22*
X102450000Y-80990000D03*
X102450000Y-83530000D03*
X102450000Y-86070000D03*
X102450000Y-88610000D03*
X102450000Y-91150000D03*
X102450000Y-93690000D03*
%TD*%
D23*
%TO.C,C3*%
X119555000Y-96385000D03*
X119555000Y-95425000D03*
%TD*%
D24*
%TO.C,D3*%
X115162500Y-89950000D03*
X116737500Y-89950000D03*
%TD*%
D25*
%TO.C,R9*%
X134065000Y-114935000D03*
X134065000Y-113915000D03*
%TD*%
D26*
%TO.C,C7*%
X101420000Y-97645000D03*
X104370000Y-97645000D03*
%TD*%
D20*
%TO.C,SW2*%
X129175000Y-68450000D03*
X129175000Y-62450000D03*
X132925000Y-68450000D03*
X132925000Y-62450000D03*
%TD*%
D17*
%TO.C,R7*%
X117015000Y-82465000D03*
X118035000Y-82465000D03*
%TD*%
D27*
%TO.C,D1*%
X126007500Y-105745000D03*
X126007500Y-106695000D03*
X126007500Y-107645000D03*
X128282500Y-107645000D03*
X128282500Y-106695000D03*
X128282500Y-105745000D03*
%TD*%
D25*
%TO.C,R2*%
X124565000Y-86935000D03*
X124565000Y-85915000D03*
%TD*%
%TO.C,R10*%
X120565000Y-114935000D03*
X120565000Y-113915000D03*
%TD*%
D28*
%TO.C,J2*%
X107990000Y-104950000D03*
X109990000Y-104950000D03*
X111990000Y-104950000D03*
X113990000Y-104950000D03*
X114990000Y-104950000D03*
X112990000Y-104950000D03*
X110990000Y-104950000D03*
X108990000Y-104950000D03*
X106990000Y-104950000D03*
D29*
X104590000Y-106100000D03*
D30*
X104590000Y-112300000D03*
D29*
X117390000Y-106100000D03*
D30*
X117390000Y-112300000D03*
%TD*%
D25*
%TO.C,R3*%
X109065000Y-83435000D03*
X109065000Y-82415000D03*
%TD*%
%TO.C,R6*%
X130065000Y-74935000D03*
X130065000Y-73915000D03*
%TD*%
%TO.C,R11*%
X116065000Y-85435000D03*
X116065000Y-84415000D03*
%TD*%
D18*
%TO.C,C8*%
X101025000Y-104455000D03*
X101985000Y-104455000D03*
%TD*%
D27*
%TO.C,D2*%
X115007500Y-100245000D03*
X115007500Y-101195000D03*
X115007500Y-102145000D03*
X117282500Y-102145000D03*
X117282500Y-101195000D03*
X117282500Y-100245000D03*
%TD*%
D25*
%TO.C,R4*%
X134065000Y-71435000D03*
X134065000Y-70415000D03*
%TD*%
D17*
%TO.C,R8*%
X122015000Y-82465000D03*
X123035000Y-82465000D03*
%TD*%
D31*
%TO.C,Q1*%
X111587500Y-82745000D03*
X111587500Y-84645000D03*
X113462500Y-83695000D03*
%TD*%
D32*
%TO.C,J1*%
X124450000Y-112200000D03*
X130230000Y-112200000D03*
D33*
X124090000Y-110755000D03*
X124890000Y-110755000D03*
D34*
X126090000Y-110755000D03*
X127090000Y-110755000D03*
X127590000Y-110755000D03*
X128590000Y-110755000D03*
D33*
X129790000Y-110755000D03*
X130590000Y-110755000D03*
X130590000Y-110755000D03*
X129790000Y-110755000D03*
D34*
X129090000Y-110755000D03*
X128090000Y-110755000D03*
X126590000Y-110755000D03*
X125590000Y-110755000D03*
D33*
X124890000Y-110755000D03*
X124090000Y-110755000D03*
D35*
X123020000Y-111670000D03*
D36*
X123020000Y-115850000D03*
D35*
X131660000Y-111670000D03*
D36*
X131660000Y-115850000D03*
%TD*%
D27*
%TO.C,U4*%
X102507500Y-100245000D03*
X102507500Y-101195000D03*
X102507500Y-102145000D03*
X104782500Y-102145000D03*
X104782500Y-100245000D03*
%TD*%
D18*
%TO.C,C6*%
X125025000Y-103455000D03*
X125985000Y-103455000D03*
%TD*%
D21*
%TO.C,J3*%
X131350000Y-83950000D03*
D22*
X131350000Y-86490000D03*
X131350000Y-89030000D03*
X131350000Y-91570000D03*
%TD*%
D18*
%TO.C,C1*%
X105025000Y-72455000D03*
X105985000Y-72455000D03*
%TD*%
D37*
%TO.C,U3*%
X110845000Y-92795000D03*
X110845000Y-95095000D03*
D38*
X117145000Y-95095000D03*
D37*
X110845000Y-97395000D03*
%TD*%
D17*
%TO.C,R12*%
X109515000Y-86965000D03*
X110535000Y-86965000D03*
%TD*%
D39*
%TO.C,F1*%
X130975000Y-107625000D03*
X133775000Y-107625000D03*
%TD*%
D40*
%TO.C,C4*%
X110345000Y-100475000D03*
X112245000Y-100475000D03*
%TD*%
D25*
%TO.C,R5*%
X132065000Y-73435000D03*
X132065000Y-72415000D03*
%TD*%
D24*
%TO.C,D4*%
X119162500Y-89950000D03*
X120737500Y-89950000D03*
%TD*%
D41*
%TO.C,Q2*%
X130345000Y-79862500D03*
X132245000Y-79862500D03*
X131295000Y-77987500D03*
%TD*%
M02*
