%TF.GenerationSoftware,KiCad,Pcbnew,10.0.2*%
%TF.CreationDate,2026-09-19T15:06:44-04:00*%
%TF.ProjectId,ups-adaptor,7570732d-6164-4617-9074-6f722e6b6963,rev?*%
%TF.SameCoordinates,Original*%
%TF.FileFunction,Legend,Bot*%
%TF.FilePolarity,Positive*%
%FSLAX46Y46*%
G04 Gerber Fmt 4.6, Leading zero omitted, Abs format (unit mm)*
G04 Created by KiCad (PCBNEW 10.0.2) date 2026-09-19 15:06:44*
%MOMM*%
%LPD*%
G01*
G04 APERTURE LIST*
%ADD10C,0.000000*%
%ADD11C,0.150000*%
G04 APERTURE END LIST*
D10*
G36*
X119841953Y-69259233D02*
G01*
X121273631Y-69300712D01*
X122323730Y-69375264D01*
X122645679Y-69425200D01*
X122745376Y-69453379D01*
X122800221Y-69483715D01*
X122844228Y-69648115D01*
X122883558Y-70028316D01*
X122947672Y-71313750D01*
X122991528Y-73095278D01*
X123014093Y-75128159D01*
X123014334Y-77167656D01*
X122991218Y-78969027D01*
X122943710Y-80287534D01*
X122910486Y-80689233D01*
X122870777Y-80878438D01*
X122836292Y-80906967D01*
X122777622Y-80933042D01*
X122578633Y-80977931D01*
X122255621Y-81013312D01*
X121790395Y-81039392D01*
X121164766Y-81056376D01*
X120360543Y-81064472D01*
X118143556Y-81054826D01*
X113575083Y-81001909D01*
X113572595Y-80737325D01*
X113839667Y-80737325D01*
X118214111Y-80702049D01*
X122570916Y-80649131D01*
X122623833Y-75216355D01*
X122627416Y-73112642D01*
X122622282Y-72192973D01*
X122612808Y-71390921D01*
X122599200Y-70728601D01*
X122581664Y-70228132D01*
X122560408Y-69911631D01*
X122548449Y-69829281D01*
X122542149Y-69808290D01*
X122535638Y-69801216D01*
X120879512Y-69768418D01*
X118017878Y-69750504D01*
X115285229Y-69749126D01*
X114016056Y-69765937D01*
X113996634Y-69795578D01*
X113978091Y-69870772D01*
X113943846Y-70154820D01*
X113913736Y-70612088D01*
X113888174Y-71236580D01*
X113852345Y-72963262D01*
X113839667Y-75286910D01*
X113839667Y-80737325D01*
X113572595Y-80737325D01*
X113522167Y-75375104D01*
X113521592Y-75286910D01*
X113513072Y-73980392D01*
X113512245Y-72793212D01*
X113519686Y-71804469D01*
X113535396Y-71005069D01*
X113546351Y-70673531D01*
X113559374Y-70385917D01*
X113574463Y-70141091D01*
X113591620Y-69937917D01*
X113610844Y-69775257D01*
X113632134Y-69651974D01*
X113655492Y-69566932D01*
X113667946Y-69538396D01*
X113680917Y-69518994D01*
X113730956Y-69488455D01*
X113826158Y-69459687D01*
X114140045Y-69407511D01*
X115177742Y-69324966D01*
X116601979Y-69272187D01*
X118220726Y-69250000D01*
X119841953Y-69259233D01*
G37*
G36*
X118274116Y-74970874D02*
G01*
X118297318Y-74975562D01*
X118319944Y-74982639D01*
X118341951Y-74992094D01*
X118363292Y-75003913D01*
X118383923Y-75018083D01*
X118403798Y-75034591D01*
X118422872Y-75053425D01*
X118441100Y-75074572D01*
X118458436Y-75098018D01*
X118474836Y-75123750D01*
X118490253Y-75151757D01*
X118504644Y-75182024D01*
X118517963Y-75214539D01*
X118530164Y-75249290D01*
X118541202Y-75286262D01*
X118551032Y-75325443D01*
X118559610Y-75366821D01*
X118566888Y-75410382D01*
X118575148Y-75461249D01*
X118578022Y-75485164D01*
X118580049Y-75508085D01*
X118581223Y-75530024D01*
X118581539Y-75550994D01*
X118580989Y-75571008D01*
X118579567Y-75590078D01*
X118577266Y-75608219D01*
X118574081Y-75625442D01*
X118570004Y-75641761D01*
X118565029Y-75657189D01*
X118559149Y-75671738D01*
X118552359Y-75685421D01*
X118544652Y-75698252D01*
X118536021Y-75710243D01*
X118526460Y-75721407D01*
X118515962Y-75731758D01*
X118504521Y-75741307D01*
X118492131Y-75750068D01*
X118478784Y-75758055D01*
X118464475Y-75765279D01*
X118449197Y-75771753D01*
X118432944Y-75777491D01*
X118415709Y-75782506D01*
X118397485Y-75786810D01*
X118378267Y-75790417D01*
X118358047Y-75793339D01*
X118336820Y-75795589D01*
X118314579Y-75797180D01*
X118267028Y-75798438D01*
X118224865Y-75797567D01*
X118184389Y-75794988D01*
X118145630Y-75790749D01*
X118108622Y-75784898D01*
X118073397Y-75777484D01*
X118039987Y-75768556D01*
X118008425Y-75758161D01*
X117978742Y-75746348D01*
X117950971Y-75733165D01*
X117925145Y-75718662D01*
X117901295Y-75702886D01*
X117879454Y-75685886D01*
X117859655Y-75667711D01*
X117841929Y-75648408D01*
X117826308Y-75628027D01*
X117812826Y-75606615D01*
X117801515Y-75584221D01*
X117792405Y-75560894D01*
X117785531Y-75536682D01*
X117780925Y-75511633D01*
X117778618Y-75485797D01*
X117778642Y-75459221D01*
X117781031Y-75431953D01*
X117785817Y-75404043D01*
X117793031Y-75375539D01*
X117802707Y-75346488D01*
X117814875Y-75316941D01*
X117829570Y-75286944D01*
X117846822Y-75256547D01*
X117866665Y-75225798D01*
X117889130Y-75194745D01*
X117914250Y-75163437D01*
X117940753Y-75133308D01*
X117967313Y-75105749D01*
X117993887Y-75080749D01*
X118020428Y-75058293D01*
X118046892Y-75038370D01*
X118073233Y-75020966D01*
X118099406Y-75006068D01*
X118125366Y-74993663D01*
X118151067Y-74983739D01*
X118176465Y-74976283D01*
X118201514Y-74971281D01*
X118226169Y-74968721D01*
X118250385Y-74968590D01*
X118274116Y-74970874D01*
G37*
G36*
X118208384Y-78166241D02*
G01*
X118216488Y-78167148D01*
X118224657Y-78168933D01*
X118232874Y-78171609D01*
X118241123Y-78175190D01*
X118249389Y-78179688D01*
X118259206Y-78185006D01*
X118268810Y-78191018D01*
X118278195Y-78197696D01*
X118287354Y-78205009D01*
X118304967Y-78221430D01*
X118321598Y-78240046D01*
X118337196Y-78260626D01*
X118351708Y-78282937D01*
X118365084Y-78306747D01*
X118377271Y-78331823D01*
X118388217Y-78357933D01*
X118397872Y-78384843D01*
X118406184Y-78412322D01*
X118413100Y-78440137D01*
X118418569Y-78468055D01*
X118422539Y-78495844D01*
X118424959Y-78523271D01*
X118425777Y-78550104D01*
X118425572Y-78563227D01*
X118424959Y-78576132D01*
X118423946Y-78588803D01*
X118422539Y-78601229D01*
X118420744Y-78613397D01*
X118418569Y-78625293D01*
X118416018Y-78636906D01*
X118413100Y-78648221D01*
X118409819Y-78659226D01*
X118406184Y-78669908D01*
X118402199Y-78680254D01*
X118397872Y-78690251D01*
X118393210Y-78699887D01*
X118388217Y-78709147D01*
X118382902Y-78718021D01*
X118377271Y-78726493D01*
X118371329Y-78734553D01*
X118365084Y-78742186D01*
X118358541Y-78749380D01*
X118351708Y-78756121D01*
X118344591Y-78762398D01*
X118337196Y-78768196D01*
X118329529Y-78773504D01*
X118321598Y-78778308D01*
X118313408Y-78782595D01*
X118304967Y-78786352D01*
X118296280Y-78789567D01*
X118287354Y-78792226D01*
X118278195Y-78794317D01*
X118268810Y-78795826D01*
X118259206Y-78796741D01*
X118249389Y-78797049D01*
X118241123Y-78796587D01*
X118232874Y-78795215D01*
X118224657Y-78792950D01*
X118216488Y-78789814D01*
X118208384Y-78785826D01*
X118200361Y-78781003D01*
X118184621Y-78768937D01*
X118169398Y-78753770D01*
X118154821Y-78735657D01*
X118141019Y-78714754D01*
X118128121Y-78691216D01*
X118116257Y-78665196D01*
X118105556Y-78636852D01*
X118096147Y-78606337D01*
X118088158Y-78573807D01*
X118081720Y-78539416D01*
X118076962Y-78503320D01*
X118074012Y-78465674D01*
X118073000Y-78426632D01*
X118073256Y-78408703D01*
X118074012Y-78391303D01*
X118075253Y-78374446D01*
X118076962Y-78358144D01*
X118079123Y-78342411D01*
X118081720Y-78327259D01*
X118084737Y-78312701D01*
X118088158Y-78298750D01*
X118091967Y-78285420D01*
X118096147Y-78272723D01*
X118100682Y-78260671D01*
X118105556Y-78249279D01*
X118110753Y-78238558D01*
X118116257Y-78228522D01*
X118122052Y-78219184D01*
X118128121Y-78210556D01*
X118134449Y-78202651D01*
X118141019Y-78195483D01*
X118147815Y-78189065D01*
X118154821Y-78183408D01*
X118162021Y-78178527D01*
X118169398Y-78174434D01*
X118176937Y-78171142D01*
X118184621Y-78168663D01*
X118192434Y-78167012D01*
X118200361Y-78166200D01*
X118208384Y-78166241D01*
G37*
G36*
X118284666Y-73858160D02*
G01*
X118424098Y-73869305D01*
X118560067Y-73889441D01*
X118690766Y-73918466D01*
X118814384Y-73956276D01*
X118872974Y-73978443D01*
X118929115Y-74002768D01*
X118982582Y-74029237D01*
X119033148Y-74057838D01*
X119080588Y-74088557D01*
X119124676Y-74121382D01*
X119165185Y-74156301D01*
X119201889Y-74193299D01*
X119269960Y-74272441D01*
X119298070Y-74309328D01*
X119322295Y-74344401D01*
X119342683Y-74377638D01*
X119359282Y-74409022D01*
X119372142Y-74438532D01*
X119381309Y-74466150D01*
X119386834Y-74491856D01*
X119388764Y-74515630D01*
X119387147Y-74537454D01*
X119382033Y-74557308D01*
X119373469Y-74575171D01*
X119361504Y-74591026D01*
X119346187Y-74604853D01*
X119327566Y-74616632D01*
X119305689Y-74626344D01*
X119280605Y-74633970D01*
X119252362Y-74639489D01*
X119221009Y-74642884D01*
X119186594Y-74644134D01*
X119149166Y-74643220D01*
X119065463Y-74634822D01*
X118970288Y-74617537D01*
X118864029Y-74591208D01*
X118747072Y-74555680D01*
X118619806Y-74510799D01*
X118539936Y-74482902D01*
X118465362Y-74458778D01*
X118395595Y-74438478D01*
X118330142Y-74422053D01*
X118268514Y-74409556D01*
X118210218Y-74401038D01*
X118182167Y-74398287D01*
X118154765Y-74396551D01*
X118127951Y-74395835D01*
X118101663Y-74396146D01*
X118075840Y-74397491D01*
X118050421Y-74399875D01*
X118025345Y-74403306D01*
X118000549Y-74407790D01*
X117975973Y-74413334D01*
X117951556Y-74419943D01*
X117927235Y-74427624D01*
X117902950Y-74436385D01*
X117878639Y-74446230D01*
X117854240Y-74457167D01*
X117804937Y-74482342D01*
X117754548Y-74511961D01*
X117702583Y-74546076D01*
X117653359Y-74573797D01*
X117605001Y-74597516D01*
X117557650Y-74617366D01*
X117511449Y-74633479D01*
X117466540Y-74645987D01*
X117423065Y-74655023D01*
X117381166Y-74660720D01*
X117340986Y-74663210D01*
X117302666Y-74662625D01*
X117266348Y-74659097D01*
X117232175Y-74652760D01*
X117200288Y-74643745D01*
X117170831Y-74632185D01*
X117143944Y-74618213D01*
X117119770Y-74601960D01*
X117098451Y-74583559D01*
X117080130Y-74563143D01*
X117064948Y-74540844D01*
X117053047Y-74516795D01*
X117044570Y-74491127D01*
X117039659Y-74463974D01*
X117038455Y-74435467D01*
X117041101Y-74405740D01*
X117047739Y-74374924D01*
X117058512Y-74343152D01*
X117073560Y-74310557D01*
X117093027Y-74277270D01*
X117117055Y-74243425D01*
X117145785Y-74209153D01*
X117179359Y-74174587D01*
X117217921Y-74139860D01*
X117261611Y-74105104D01*
X117311131Y-74071616D01*
X117363629Y-74040595D01*
X117418878Y-74012028D01*
X117476654Y-73985904D01*
X117536729Y-73962208D01*
X117598877Y-73940928D01*
X117728490Y-73905564D01*
X117863684Y-73879709D01*
X118002651Y-73863259D01*
X118143581Y-73856110D01*
X118284666Y-73858160D01*
G37*
G36*
X118389247Y-72653794D02*
G01*
X118523653Y-72670463D01*
X118660591Y-72697727D01*
X118801431Y-72735610D01*
X118947542Y-72784139D01*
X119100293Y-72843338D01*
X119261054Y-72913235D01*
X119431194Y-72993855D01*
X119521103Y-73039954D01*
X119605585Y-73085666D01*
X119684590Y-73131017D01*
X119758065Y-73176031D01*
X119825959Y-73220736D01*
X119888220Y-73265156D01*
X119944797Y-73309318D01*
X119995638Y-73353247D01*
X120018892Y-73375132D01*
X120040692Y-73396970D01*
X120061032Y-73418761D01*
X120079905Y-73440511D01*
X120097306Y-73462222D01*
X120113228Y-73483898D01*
X120127664Y-73505541D01*
X120140608Y-73527155D01*
X120152053Y-73548744D01*
X120161993Y-73570309D01*
X120170422Y-73591856D01*
X120177332Y-73613386D01*
X120182719Y-73634903D01*
X120186574Y-73656411D01*
X120188892Y-73677912D01*
X120189666Y-73699410D01*
X120187943Y-73773820D01*
X120182500Y-73838282D01*
X120178254Y-73866774D01*
X120172923Y-73892770D01*
X120166455Y-73916267D01*
X120158798Y-73937260D01*
X120149901Y-73955746D01*
X120139712Y-73971723D01*
X120128180Y-73985188D01*
X120115252Y-73996136D01*
X120100877Y-74004565D01*
X120085004Y-74010472D01*
X120067581Y-74013853D01*
X120048555Y-74014705D01*
X120027876Y-74013025D01*
X120005491Y-74008810D01*
X119981350Y-74002056D01*
X119955400Y-73992760D01*
X119927589Y-73980919D01*
X119897867Y-73966530D01*
X119832479Y-73930094D01*
X119758823Y-73883426D01*
X119676485Y-73826500D01*
X119585052Y-73759290D01*
X119484111Y-73681771D01*
X119425812Y-73638518D01*
X119363541Y-73598055D01*
X119297562Y-73560383D01*
X119228140Y-73525502D01*
X119080027Y-73464110D01*
X118921320Y-73413881D01*
X118754138Y-73374813D01*
X118580600Y-73346908D01*
X118402825Y-73330165D01*
X118222930Y-73324584D01*
X118043036Y-73330165D01*
X117865261Y-73346908D01*
X117691723Y-73374813D01*
X117524541Y-73413881D01*
X117365834Y-73464110D01*
X117217721Y-73525502D01*
X117148299Y-73560383D01*
X117082320Y-73598055D01*
X117020049Y-73638518D01*
X116961750Y-73681771D01*
X116861403Y-73759286D01*
X116771650Y-73826465D01*
X116691921Y-73883309D01*
X116655639Y-73907856D01*
X116621650Y-73929818D01*
X116589883Y-73949197D01*
X116560267Y-73965992D01*
X116532731Y-73980203D01*
X116507204Y-73991830D01*
X116483615Y-74000873D01*
X116461892Y-74007333D01*
X116441966Y-74011209D01*
X116423764Y-74012501D01*
X116407216Y-74011209D01*
X116392250Y-74007333D01*
X116378796Y-74000873D01*
X116366782Y-73991830D01*
X116356138Y-73980203D01*
X116346792Y-73965992D01*
X116338673Y-73949197D01*
X116331711Y-73929818D01*
X116325834Y-73907856D01*
X116320971Y-73883309D01*
X116317051Y-73856179D01*
X116314003Y-73826465D01*
X116310239Y-73759286D01*
X116309111Y-73681771D01*
X116311816Y-73632765D01*
X116319998Y-73584895D01*
X116333761Y-73538059D01*
X116353208Y-73492153D01*
X116378444Y-73447074D01*
X116409570Y-73402719D01*
X116446691Y-73358983D01*
X116489910Y-73315764D01*
X116539330Y-73272959D01*
X116595054Y-73230464D01*
X116657186Y-73188175D01*
X116725830Y-73145990D01*
X116801088Y-73103805D01*
X116883064Y-73061516D01*
X116971862Y-73019021D01*
X117067584Y-72976216D01*
X117240824Y-72898705D01*
X117404273Y-72831556D01*
X117559298Y-72774794D01*
X117707269Y-72728445D01*
X117849555Y-72692534D01*
X117987527Y-72667087D01*
X118122553Y-72652131D01*
X118256003Y-72647691D01*
X118389247Y-72653794D01*
G37*
G36*
X118496506Y-71599930D02*
G01*
X118796194Y-71633455D01*
X119090922Y-71687444D01*
X119378002Y-71761509D01*
X119654747Y-71855263D01*
X119918469Y-71968318D01*
X120044606Y-72031963D01*
X120166481Y-72100287D01*
X120283756Y-72173243D01*
X120396097Y-72250782D01*
X120503166Y-72332855D01*
X120604628Y-72419415D01*
X120700148Y-72510412D01*
X120789389Y-72605799D01*
X120827276Y-72648162D01*
X120861598Y-72689217D01*
X120892406Y-72728897D01*
X120919751Y-72767133D01*
X120943686Y-72803857D01*
X120964262Y-72839002D01*
X120981530Y-72872499D01*
X120995543Y-72904282D01*
X121006352Y-72934282D01*
X121014009Y-72962431D01*
X121018565Y-72988662D01*
X121020072Y-73012906D01*
X121018582Y-73035096D01*
X121014147Y-73055164D01*
X121006817Y-73073043D01*
X120996645Y-73088663D01*
X120983683Y-73101959D01*
X120967982Y-73112861D01*
X120949594Y-73121302D01*
X120928570Y-73127214D01*
X120904963Y-73130529D01*
X120878823Y-73131180D01*
X120850203Y-73129099D01*
X120819154Y-73124217D01*
X120785728Y-73116467D01*
X120749977Y-73105781D01*
X120711952Y-73092092D01*
X120671704Y-73075331D01*
X120629286Y-73055431D01*
X120584750Y-73032323D01*
X120538147Y-73005941D01*
X120489528Y-72976216D01*
X120316704Y-72867480D01*
X120148739Y-72766134D01*
X119985527Y-72672126D01*
X119826967Y-72585404D01*
X119672954Y-72505917D01*
X119523385Y-72433613D01*
X119378157Y-72368441D01*
X119237166Y-72310348D01*
X119100310Y-72259283D01*
X118967484Y-72215194D01*
X118838586Y-72178030D01*
X118713512Y-72147739D01*
X118592158Y-72124270D01*
X118474422Y-72107569D01*
X118360200Y-72097587D01*
X118249389Y-72094271D01*
X118134680Y-72099146D01*
X118009713Y-72113426D01*
X117875807Y-72136594D01*
X117734278Y-72168134D01*
X117586445Y-72207529D01*
X117433625Y-72254262D01*
X117277136Y-72307816D01*
X117118295Y-72367674D01*
X116958421Y-72433320D01*
X116798831Y-72504238D01*
X116640844Y-72579909D01*
X116485776Y-72659818D01*
X116334945Y-72743448D01*
X116189670Y-72830282D01*
X116051267Y-72919802D01*
X115921056Y-73011494D01*
X115890911Y-73033607D01*
X115860146Y-73053627D01*
X115828968Y-73071529D01*
X115797583Y-73087286D01*
X115766199Y-73100872D01*
X115735020Y-73112262D01*
X115704256Y-73121431D01*
X115674111Y-73128351D01*
X115644793Y-73132998D01*
X115616509Y-73135345D01*
X115602819Y-73135648D01*
X115589465Y-73135366D01*
X115576473Y-73134497D01*
X115563868Y-73133036D01*
X115551677Y-73130982D01*
X115539925Y-73128330D01*
X115528638Y-73125077D01*
X115517842Y-73121220D01*
X115507562Y-73116756D01*
X115497826Y-73111681D01*
X115488657Y-73105993D01*
X115480083Y-73099688D01*
X115462042Y-73077476D01*
X115447579Y-73053873D01*
X115436656Y-73028932D01*
X115429234Y-73002709D01*
X115425274Y-72975258D01*
X115424738Y-72946635D01*
X115427587Y-72916895D01*
X115433781Y-72886092D01*
X115443283Y-72854281D01*
X115456054Y-72821518D01*
X115472054Y-72787857D01*
X115491245Y-72753352D01*
X115539046Y-72682035D01*
X115599146Y-72608004D01*
X115671234Y-72531699D01*
X115755002Y-72453560D01*
X115850138Y-72374026D01*
X115956333Y-72293536D01*
X116073277Y-72212529D01*
X116200659Y-72131444D01*
X116338170Y-72050721D01*
X116485500Y-71970799D01*
X116613188Y-71907591D01*
X116744674Y-71850225D01*
X116879623Y-71798653D01*
X117017698Y-71752828D01*
X117158564Y-71712699D01*
X117301884Y-71678220D01*
X117594545Y-71626014D01*
X117892994Y-71595822D01*
X118194543Y-71587256D01*
X118496506Y-71599930D01*
G37*
G36*
X117800000Y-78294695D02*
G01*
X117804541Y-78299900D01*
X117808849Y-78307760D01*
X117812964Y-78318284D01*
X117820767Y-78347365D01*
X117828260Y-78387220D01*
X117835753Y-78437927D01*
X117843556Y-78499564D01*
X117861333Y-78655937D01*
X117871218Y-78718414D01*
X117884187Y-78776860D01*
X117900018Y-78831275D01*
X117918487Y-78881659D01*
X117939372Y-78928013D01*
X117962451Y-78970336D01*
X117987499Y-79008628D01*
X118014295Y-79042890D01*
X118042615Y-79073121D01*
X118072237Y-79099321D01*
X118102938Y-79121490D01*
X118134494Y-79139628D01*
X118166684Y-79153736D01*
X118199284Y-79163813D01*
X118232071Y-79169859D01*
X118264822Y-79171874D01*
X118297316Y-79169859D01*
X118329328Y-79163813D01*
X118360635Y-79153736D01*
X118391016Y-79139628D01*
X118420247Y-79121490D01*
X118448106Y-79099321D01*
X118474369Y-79073121D01*
X118498813Y-79042890D01*
X118521217Y-79008628D01*
X118541356Y-78970336D01*
X118559008Y-78928013D01*
X118573951Y-78881659D01*
X118585961Y-78831275D01*
X118594815Y-78776860D01*
X118600291Y-78718414D01*
X118602166Y-78655937D01*
X118605504Y-78587293D01*
X118609022Y-78526815D01*
X118612902Y-78474398D01*
X118617325Y-78429939D01*
X118622471Y-78393335D01*
X118625372Y-78377946D01*
X118628522Y-78364482D01*
X118631943Y-78352930D01*
X118635657Y-78343278D01*
X118639689Y-78335511D01*
X118644059Y-78329618D01*
X118648791Y-78325585D01*
X118653908Y-78323400D01*
X118659431Y-78323049D01*
X118665384Y-78324519D01*
X118671789Y-78327799D01*
X118678669Y-78332874D01*
X118686047Y-78339731D01*
X118693944Y-78348359D01*
X118702384Y-78358744D01*
X118711389Y-78370873D01*
X118731185Y-78400311D01*
X118753514Y-78436571D01*
X118778555Y-78479548D01*
X118798869Y-78516022D01*
X118816830Y-78552644D01*
X118832467Y-78589357D01*
X118845804Y-78626103D01*
X118856867Y-78662822D01*
X118865682Y-78699457D01*
X118872275Y-78735951D01*
X118876672Y-78772244D01*
X118878898Y-78808278D01*
X118878980Y-78843997D01*
X118876943Y-78879340D01*
X118872813Y-78914251D01*
X118866616Y-78948670D01*
X118858378Y-78982541D01*
X118848125Y-79015805D01*
X118835882Y-79048403D01*
X118821675Y-79080277D01*
X118805530Y-79111370D01*
X118787474Y-79141624D01*
X118767531Y-79170979D01*
X118745728Y-79199378D01*
X118722090Y-79226764D01*
X118696644Y-79253077D01*
X118669415Y-79278259D01*
X118640428Y-79302253D01*
X118609711Y-79325001D01*
X118577288Y-79346443D01*
X118543186Y-79366523D01*
X118507430Y-79385181D01*
X118470047Y-79402360D01*
X118431061Y-79418002D01*
X118390500Y-79432048D01*
X118342868Y-79445139D01*
X118295945Y-79454713D01*
X118249815Y-79460869D01*
X118204568Y-79463709D01*
X118160289Y-79463332D01*
X118117067Y-79459838D01*
X118074988Y-79453327D01*
X118034139Y-79443900D01*
X117994608Y-79431656D01*
X117956482Y-79416696D01*
X117919849Y-79399121D01*
X117884794Y-79379029D01*
X117851406Y-79356521D01*
X117819772Y-79331697D01*
X117789979Y-79304658D01*
X117762114Y-79275504D01*
X117736265Y-79244333D01*
X117712518Y-79211248D01*
X117690961Y-79176348D01*
X117671681Y-79139732D01*
X117654765Y-79101502D01*
X117640300Y-79061757D01*
X117628374Y-79020597D01*
X117619074Y-78978123D01*
X117612487Y-78934434D01*
X117608700Y-78889631D01*
X117607800Y-78843814D01*
X117609875Y-78797083D01*
X117615012Y-78749538D01*
X117623298Y-78701280D01*
X117634821Y-78652407D01*
X117649666Y-78603021D01*
X117702170Y-78464218D01*
X117723615Y-78409893D01*
X117742270Y-78365723D01*
X117758445Y-78331785D01*
X117772450Y-78308155D01*
X117778735Y-78300231D01*
X117784594Y-78294913D01*
X117790065Y-78292212D01*
X117795187Y-78292136D01*
X117800000Y-78294695D01*
G37*
G36*
X118326905Y-77564567D02*
G01*
X118370807Y-77571155D01*
X118416175Y-77581890D01*
X118462812Y-77596571D01*
X118510522Y-77614999D01*
X118559107Y-77636973D01*
X118608370Y-77662294D01*
X118658115Y-77690760D01*
X118758260Y-77756329D01*
X118857965Y-77832078D01*
X118955655Y-77916405D01*
X119049753Y-78007709D01*
X119138684Y-78104387D01*
X119220871Y-78204837D01*
X119294738Y-78307458D01*
X119358709Y-78410647D01*
X119386491Y-78461954D01*
X119411208Y-78512803D01*
X119432663Y-78562992D01*
X119450659Y-78612323D01*
X119464999Y-78660594D01*
X119475485Y-78707606D01*
X119481922Y-78753157D01*
X119484111Y-78797049D01*
X119481920Y-78844044D01*
X119475472Y-78892306D01*
X119464955Y-78941652D01*
X119450556Y-78991903D01*
X119432461Y-79042878D01*
X119410860Y-79094395D01*
X119385937Y-79146274D01*
X119357883Y-79198333D01*
X119293123Y-79302272D01*
X119218081Y-79404763D01*
X119134253Y-79504361D01*
X119043139Y-79599618D01*
X118946237Y-79689087D01*
X118845046Y-79771322D01*
X118741064Y-79844875D01*
X118635791Y-79908299D01*
X118583138Y-79935761D01*
X118530724Y-79960148D01*
X118478736Y-79981279D01*
X118427363Y-79998974D01*
X118376790Y-80013051D01*
X118327205Y-80023331D01*
X118278796Y-80029631D01*
X118231750Y-80031771D01*
X118187369Y-80029739D01*
X118140455Y-80023779D01*
X118091371Y-80014098D01*
X118040478Y-80000903D01*
X117988139Y-79984401D01*
X117934714Y-79964798D01*
X117880566Y-79942302D01*
X117826056Y-79917118D01*
X117771545Y-79889454D01*
X117717397Y-79859516D01*
X117663972Y-79827511D01*
X117611633Y-79793646D01*
X117560740Y-79758127D01*
X117511656Y-79721161D01*
X117464742Y-79682955D01*
X117420361Y-79643715D01*
X117370752Y-79595103D01*
X117324450Y-79545242D01*
X117281455Y-79494223D01*
X117241767Y-79442143D01*
X117205387Y-79389093D01*
X117172314Y-79335168D01*
X117142549Y-79280462D01*
X117116090Y-79225067D01*
X117092939Y-79169079D01*
X117073095Y-79112589D01*
X117056559Y-79055693D01*
X117043330Y-78998483D01*
X117033408Y-78941054D01*
X117026793Y-78883499D01*
X117023486Y-78825911D01*
X117023486Y-78768385D01*
X117023867Y-78761771D01*
X117367444Y-78761771D01*
X117368465Y-78814847D01*
X117371475Y-78868052D01*
X117376397Y-78921102D01*
X117383154Y-78973713D01*
X117391667Y-79025601D01*
X117401861Y-79076480D01*
X117413656Y-79126068D01*
X117426975Y-79174080D01*
X117441742Y-79220231D01*
X117457878Y-79264238D01*
X117475306Y-79305816D01*
X117493948Y-79344681D01*
X117513727Y-79380549D01*
X117534566Y-79413135D01*
X117556386Y-79442156D01*
X117579111Y-79467327D01*
X117605484Y-79491356D01*
X117634861Y-79513835D01*
X117667042Y-79534764D01*
X117701825Y-79554143D01*
X117739012Y-79571971D01*
X117778401Y-79588249D01*
X117862987Y-79616154D01*
X117953980Y-79637858D01*
X118049780Y-79653361D01*
X118148783Y-79662663D01*
X118249389Y-79665764D01*
X118349994Y-79662663D01*
X118448997Y-79653361D01*
X118544797Y-79637858D01*
X118635790Y-79616154D01*
X118720376Y-79588249D01*
X118759765Y-79571971D01*
X118796952Y-79554143D01*
X118831736Y-79534764D01*
X118863916Y-79513835D01*
X118893293Y-79491356D01*
X118919666Y-79467327D01*
X118946797Y-79438202D01*
X118971971Y-79407136D01*
X118995195Y-79374256D01*
X119016473Y-79339686D01*
X119035814Y-79303552D01*
X119053224Y-79265982D01*
X119068709Y-79227100D01*
X119082275Y-79187033D01*
X119093929Y-79145907D01*
X119103677Y-79103847D01*
X119111527Y-79060980D01*
X119117484Y-79017431D01*
X119123745Y-78928793D01*
X119122513Y-78838941D01*
X119113840Y-78748882D01*
X119097778Y-78659624D01*
X119074377Y-78572174D01*
X119059941Y-78529443D01*
X119043690Y-78487541D01*
X119025630Y-78446596D01*
X119005768Y-78406732D01*
X118984110Y-78368076D01*
X118960663Y-78330755D01*
X118935433Y-78294893D01*
X118908427Y-78260617D01*
X118879651Y-78228053D01*
X118849111Y-78197326D01*
X118796752Y-78147132D01*
X118742360Y-78102315D01*
X118686180Y-78062775D01*
X118628453Y-78028413D01*
X118569420Y-77999129D01*
X118509325Y-77974821D01*
X118448410Y-77955390D01*
X118386917Y-77940736D01*
X118325088Y-77930759D01*
X118263165Y-77925358D01*
X118201390Y-77924434D01*
X118140007Y-77927886D01*
X118079256Y-77935614D01*
X118019381Y-77947518D01*
X117960623Y-77963499D01*
X117903225Y-77983455D01*
X117847429Y-78007287D01*
X117793478Y-78034894D01*
X117741612Y-78066178D01*
X117692075Y-78101036D01*
X117645110Y-78139370D01*
X117600957Y-78181078D01*
X117559860Y-78226062D01*
X117522060Y-78274221D01*
X117487800Y-78325454D01*
X117457322Y-78379662D01*
X117430869Y-78436745D01*
X117408682Y-78496602D01*
X117391004Y-78559133D01*
X117378076Y-78624238D01*
X117370143Y-78691818D01*
X117367444Y-78761771D01*
X117023867Y-78761771D01*
X117026793Y-78711014D01*
X117033408Y-78653892D01*
X117043330Y-78597112D01*
X117056559Y-78540768D01*
X117073095Y-78484953D01*
X117092939Y-78429762D01*
X117116090Y-78375288D01*
X117142548Y-78321625D01*
X117172314Y-78268866D01*
X117205387Y-78217105D01*
X117241767Y-78166436D01*
X117281455Y-78116952D01*
X117324449Y-78068747D01*
X117370752Y-78021915D01*
X117420361Y-77976549D01*
X117473278Y-77932743D01*
X117523860Y-77893701D01*
X117576148Y-77856055D01*
X117629780Y-77819959D01*
X117684393Y-77785569D01*
X117739627Y-77753038D01*
X117795119Y-77722523D01*
X117850507Y-77694179D01*
X117905431Y-77668160D01*
X117959527Y-77644621D01*
X118012435Y-77623718D01*
X118063793Y-77605606D01*
X118113239Y-77590439D01*
X118160411Y-77578372D01*
X118204947Y-77569562D01*
X118246486Y-77564161D01*
X118284667Y-77562327D01*
X118326905Y-77564567D01*
G37*
G36*
X121820028Y-69985111D02*
G01*
X121842795Y-70007887D01*
X121863134Y-70046321D01*
X121881070Y-70100801D01*
X121896629Y-70171714D01*
X121909837Y-70259448D01*
X121929302Y-70486928D01*
X121939671Y-70786341D01*
X121941153Y-71160788D01*
X121933952Y-71613370D01*
X121918277Y-72147188D01*
X121897675Y-72812126D01*
X121885953Y-73092518D01*
X121872526Y-73342498D01*
X121856825Y-73565297D01*
X121838282Y-73764144D01*
X121816328Y-73942268D01*
X121790395Y-74102900D01*
X121759915Y-74249269D01*
X121724318Y-74384605D01*
X121683037Y-74512138D01*
X121635504Y-74635098D01*
X121581149Y-74756714D01*
X121519404Y-74880216D01*
X121449701Y-75008835D01*
X121371471Y-75145799D01*
X121315558Y-75233326D01*
X121254063Y-75323462D01*
X121187607Y-75415511D01*
X121116810Y-75508774D01*
X121042293Y-75602554D01*
X120964675Y-75696153D01*
X120884576Y-75788873D01*
X120802618Y-75880017D01*
X120719419Y-75968888D01*
X120635599Y-76054787D01*
X120551780Y-76137017D01*
X120468581Y-76214881D01*
X120386622Y-76287680D01*
X120306524Y-76354717D01*
X120228906Y-76415295D01*
X120154388Y-76468715D01*
X120042104Y-76540920D01*
X119935763Y-76605658D01*
X119833865Y-76663316D01*
X119734914Y-76714282D01*
X119637409Y-76758943D01*
X119539853Y-76797688D01*
X119440746Y-76830903D01*
X119338590Y-76858976D01*
X119231887Y-76882295D01*
X119119138Y-76901247D01*
X118998844Y-76916221D01*
X118869506Y-76927602D01*
X118729627Y-76935780D01*
X118577707Y-76941142D01*
X118231750Y-76944966D01*
X118045624Y-76944062D01*
X117876319Y-76941038D01*
X117722052Y-76935431D01*
X117581040Y-76926776D01*
X117451500Y-76914606D01*
X117331650Y-76898457D01*
X117219706Y-76877864D01*
X117113885Y-76852361D01*
X117012406Y-76821485D01*
X116913484Y-76784769D01*
X116815338Y-76741748D01*
X116716183Y-76691958D01*
X116614239Y-76634933D01*
X116507721Y-76570208D01*
X116394847Y-76497318D01*
X116273833Y-76415799D01*
X116196220Y-76356177D01*
X116115945Y-76290225D01*
X116033654Y-76218640D01*
X115949994Y-76142120D01*
X115865611Y-76061363D01*
X115781150Y-75977066D01*
X115697258Y-75889926D01*
X115614580Y-75800643D01*
X115533762Y-75709912D01*
X115455451Y-75618431D01*
X115380292Y-75526900D01*
X115308931Y-75436014D01*
X115242014Y-75346471D01*
X115180188Y-75258970D01*
X115124097Y-75174208D01*
X115074389Y-75092882D01*
X114943923Y-74841838D01*
X114889245Y-74722168D01*
X114840949Y-74602576D01*
X114798544Y-74480193D01*
X114761540Y-74352152D01*
X114729444Y-74215584D01*
X114701767Y-74067622D01*
X114678018Y-73905397D01*
X114657705Y-73726041D01*
X114625424Y-73304464D01*
X114600998Y-72779949D01*
X114580500Y-72129549D01*
X114571616Y-71861211D01*
X114564825Y-71611682D01*
X114560152Y-71380758D01*
X114557625Y-71168230D01*
X114557267Y-70973892D01*
X114559106Y-70797537D01*
X114563167Y-70638960D01*
X114569476Y-70497952D01*
X114578058Y-70374307D01*
X114588941Y-70267820D01*
X114602148Y-70178282D01*
X114609632Y-70139804D01*
X114617707Y-70105487D01*
X114626376Y-70075303D01*
X114635643Y-70049228D01*
X114645511Y-70027236D01*
X114655982Y-70009300D01*
X114667061Y-69995394D01*
X114678750Y-69985494D01*
X114691053Y-69979573D01*
X114703972Y-69977605D01*
X114726499Y-69985472D01*
X114747759Y-70009127D01*
X114767728Y-70048647D01*
X114786379Y-70104109D01*
X114803686Y-70175590D01*
X114819624Y-70263169D01*
X114847288Y-70486928D01*
X114869165Y-70776006D01*
X114885046Y-71131023D01*
X114894727Y-71552599D01*
X114898000Y-72041355D01*
X114900894Y-72637253D01*
X114904976Y-72894442D01*
X114911229Y-73127524D01*
X114919962Y-73338799D01*
X114931486Y-73530566D01*
X114946111Y-73705125D01*
X114964146Y-73864775D01*
X114985902Y-74011816D01*
X115011688Y-74148547D01*
X115041816Y-74277269D01*
X115076594Y-74400280D01*
X115116333Y-74519881D01*
X115161343Y-74638371D01*
X115211934Y-74758049D01*
X115268417Y-74881216D01*
X115377652Y-75081643D01*
X115499858Y-75272510D01*
X115634363Y-75453351D01*
X115780496Y-75623703D01*
X115937583Y-75783099D01*
X116104955Y-75931074D01*
X116281938Y-76067164D01*
X116467861Y-76190903D01*
X116662052Y-76301827D01*
X116863840Y-76399469D01*
X117072553Y-76483366D01*
X117287518Y-76553052D01*
X117508065Y-76608061D01*
X117733520Y-76647929D01*
X117963213Y-76672192D01*
X118196472Y-76680382D01*
X118389871Y-76677230D01*
X118573710Y-76667566D01*
X118748764Y-76651082D01*
X118915808Y-76627466D01*
X119075617Y-76596408D01*
X119228967Y-76557599D01*
X119376633Y-76510728D01*
X119519389Y-76455486D01*
X119658011Y-76391563D01*
X119793274Y-76318647D01*
X119925953Y-76236430D01*
X120056823Y-76144601D01*
X120186660Y-76042850D01*
X120316239Y-75930867D01*
X120446334Y-75808342D01*
X120577722Y-75674965D01*
X120722924Y-75516693D01*
X120854638Y-75357982D01*
X120973434Y-75196739D01*
X121079879Y-75030870D01*
X121174541Y-74858284D01*
X121257990Y-74676887D01*
X121330794Y-74484586D01*
X121393520Y-74279288D01*
X121446739Y-74058901D01*
X121491017Y-73821332D01*
X121526923Y-73564487D01*
X121555027Y-73286274D01*
X121575895Y-72984600D01*
X121590098Y-72657372D01*
X121598202Y-72302497D01*
X121600778Y-71917882D01*
X121601600Y-71680989D01*
X121604050Y-71459754D01*
X121608103Y-71254124D01*
X121613731Y-71064050D01*
X121620910Y-70889478D01*
X121629613Y-70730358D01*
X121639815Y-70586637D01*
X121651489Y-70458264D01*
X121664611Y-70345188D01*
X121679154Y-70247356D01*
X121695092Y-70164716D01*
X121712399Y-70097218D01*
X121721558Y-70069131D01*
X121731050Y-70044810D01*
X121740871Y-70024248D01*
X121751018Y-70007439D01*
X121761489Y-69994377D01*
X121772279Y-69985055D01*
X121783386Y-69979466D01*
X121794806Y-69977605D01*
X121820028Y-69985111D01*
G37*
D11*
X124190476Y-67652438D02*
X124285714Y-67604819D01*
X124285714Y-67604819D02*
X124428571Y-67604819D01*
X124428571Y-67604819D02*
X124571428Y-67652438D01*
X124571428Y-67652438D02*
X124666666Y-67747676D01*
X124666666Y-67747676D02*
X124714285Y-67842914D01*
X124714285Y-67842914D02*
X124761904Y-68033390D01*
X124761904Y-68033390D02*
X124761904Y-68176247D01*
X124761904Y-68176247D02*
X124714285Y-68366723D01*
X124714285Y-68366723D02*
X124666666Y-68461961D01*
X124666666Y-68461961D02*
X124571428Y-68557200D01*
X124571428Y-68557200D02*
X124428571Y-68604819D01*
X124428571Y-68604819D02*
X124333333Y-68604819D01*
X124333333Y-68604819D02*
X124190476Y-68557200D01*
X124190476Y-68557200D02*
X124142857Y-68509580D01*
X124142857Y-68509580D02*
X124142857Y-68176247D01*
X124142857Y-68176247D02*
X124333333Y-68176247D01*
X123714285Y-68604819D02*
X123714285Y-67604819D01*
X123714285Y-67604819D02*
X123333333Y-67604819D01*
X123333333Y-67604819D02*
X123238095Y-67652438D01*
X123238095Y-67652438D02*
X123190476Y-67700057D01*
X123190476Y-67700057D02*
X123142857Y-67795295D01*
X123142857Y-67795295D02*
X123142857Y-67938152D01*
X123142857Y-67938152D02*
X123190476Y-68033390D01*
X123190476Y-68033390D02*
X123238095Y-68081009D01*
X123238095Y-68081009D02*
X123333333Y-68128628D01*
X123333333Y-68128628D02*
X123714285Y-68128628D01*
X122238095Y-68604819D02*
X122714285Y-68604819D01*
X122714285Y-68604819D02*
X122714285Y-67604819D01*
X121904761Y-68223866D02*
X121142857Y-68223866D01*
X120761904Y-67604819D02*
X120142857Y-67604819D01*
X120142857Y-67604819D02*
X120476190Y-67985771D01*
X120476190Y-67985771D02*
X120333333Y-67985771D01*
X120333333Y-67985771D02*
X120238095Y-68033390D01*
X120238095Y-68033390D02*
X120190476Y-68081009D01*
X120190476Y-68081009D02*
X120142857Y-68176247D01*
X120142857Y-68176247D02*
X120142857Y-68414342D01*
X120142857Y-68414342D02*
X120190476Y-68509580D01*
X120190476Y-68509580D02*
X120238095Y-68557200D01*
X120238095Y-68557200D02*
X120333333Y-68604819D01*
X120333333Y-68604819D02*
X120619047Y-68604819D01*
X120619047Y-68604819D02*
X120714285Y-68557200D01*
X120714285Y-68557200D02*
X120761904Y-68509580D01*
X119714285Y-68509580D02*
X119666666Y-68557200D01*
X119666666Y-68557200D02*
X119714285Y-68604819D01*
X119714285Y-68604819D02*
X119761904Y-68557200D01*
X119761904Y-68557200D02*
X119714285Y-68509580D01*
X119714285Y-68509580D02*
X119714285Y-68604819D01*
X119047619Y-67604819D02*
X118952381Y-67604819D01*
X118952381Y-67604819D02*
X118857143Y-67652438D01*
X118857143Y-67652438D02*
X118809524Y-67700057D01*
X118809524Y-67700057D02*
X118761905Y-67795295D01*
X118761905Y-67795295D02*
X118714286Y-67985771D01*
X118714286Y-67985771D02*
X118714286Y-68223866D01*
X118714286Y-68223866D02*
X118761905Y-68414342D01*
X118761905Y-68414342D02*
X118809524Y-68509580D01*
X118809524Y-68509580D02*
X118857143Y-68557200D01*
X118857143Y-68557200D02*
X118952381Y-68604819D01*
X118952381Y-68604819D02*
X119047619Y-68604819D01*
X119047619Y-68604819D02*
X119142857Y-68557200D01*
X119142857Y-68557200D02*
X119190476Y-68509580D01*
X119190476Y-68509580D02*
X119238095Y-68414342D01*
X119238095Y-68414342D02*
X119285714Y-68223866D01*
X119285714Y-68223866D02*
X119285714Y-67985771D01*
X119285714Y-67985771D02*
X119238095Y-67795295D01*
X119238095Y-67795295D02*
X119190476Y-67700057D01*
X119190476Y-67700057D02*
X119142857Y-67652438D01*
X119142857Y-67652438D02*
X119047619Y-67604819D01*
X118285714Y-68223866D02*
X117523810Y-68223866D01*
X116904762Y-68604819D02*
X117000000Y-68557200D01*
X117000000Y-68557200D02*
X117047619Y-68509580D01*
X117047619Y-68509580D02*
X117095238Y-68414342D01*
X117095238Y-68414342D02*
X117095238Y-68128628D01*
X117095238Y-68128628D02*
X117047619Y-68033390D01*
X117047619Y-68033390D02*
X117000000Y-67985771D01*
X117000000Y-67985771D02*
X116904762Y-67938152D01*
X116904762Y-67938152D02*
X116761905Y-67938152D01*
X116761905Y-67938152D02*
X116666667Y-67985771D01*
X116666667Y-67985771D02*
X116619048Y-68033390D01*
X116619048Y-68033390D02*
X116571429Y-68128628D01*
X116571429Y-68128628D02*
X116571429Y-68414342D01*
X116571429Y-68414342D02*
X116619048Y-68509580D01*
X116619048Y-68509580D02*
X116666667Y-68557200D01*
X116666667Y-68557200D02*
X116761905Y-68604819D01*
X116761905Y-68604819D02*
X116904762Y-68604819D01*
X116142857Y-68604819D02*
X116142857Y-67938152D01*
X116142857Y-68128628D02*
X116095238Y-68033390D01*
X116095238Y-68033390D02*
X116047619Y-67985771D01*
X116047619Y-67985771D02*
X115952381Y-67938152D01*
X115952381Y-67938152D02*
X115857143Y-67938152D01*
X115523809Y-68223866D02*
X114761905Y-68223866D01*
X114142857Y-68604819D02*
X114238095Y-68557200D01*
X114238095Y-68557200D02*
X114285714Y-68461961D01*
X114285714Y-68461961D02*
X114285714Y-67604819D01*
X113333333Y-68604819D02*
X113333333Y-68081009D01*
X113333333Y-68081009D02*
X113380952Y-67985771D01*
X113380952Y-67985771D02*
X113476190Y-67938152D01*
X113476190Y-67938152D02*
X113666666Y-67938152D01*
X113666666Y-67938152D02*
X113761904Y-67985771D01*
X113333333Y-68557200D02*
X113428571Y-68604819D01*
X113428571Y-68604819D02*
X113666666Y-68604819D01*
X113666666Y-68604819D02*
X113761904Y-68557200D01*
X113761904Y-68557200D02*
X113809523Y-68461961D01*
X113809523Y-68461961D02*
X113809523Y-68366723D01*
X113809523Y-68366723D02*
X113761904Y-68271485D01*
X113761904Y-68271485D02*
X113666666Y-68223866D01*
X113666666Y-68223866D02*
X113428571Y-68223866D01*
X113428571Y-68223866D02*
X113333333Y-68176247D01*
X112999999Y-67938152D02*
X112619047Y-67938152D01*
X112857142Y-67604819D02*
X112857142Y-68461961D01*
X112857142Y-68461961D02*
X112809523Y-68557200D01*
X112809523Y-68557200D02*
X112714285Y-68604819D01*
X112714285Y-68604819D02*
X112619047Y-68604819D01*
X111904761Y-68557200D02*
X111999999Y-68604819D01*
X111999999Y-68604819D02*
X112190475Y-68604819D01*
X112190475Y-68604819D02*
X112285713Y-68557200D01*
X112285713Y-68557200D02*
X112333332Y-68461961D01*
X112333332Y-68461961D02*
X112333332Y-68081009D01*
X112333332Y-68081009D02*
X112285713Y-67985771D01*
X112285713Y-67985771D02*
X112190475Y-67938152D01*
X112190475Y-67938152D02*
X111999999Y-67938152D01*
X111999999Y-67938152D02*
X111904761Y-67985771D01*
X111904761Y-67985771D02*
X111857142Y-68081009D01*
X111857142Y-68081009D02*
X111857142Y-68176247D01*
X111857142Y-68176247D02*
X112333332Y-68271485D01*
X111428570Y-68604819D02*
X111428570Y-67938152D01*
X111428570Y-68128628D02*
X111380951Y-68033390D01*
X111380951Y-68033390D02*
X111333332Y-67985771D01*
X111333332Y-67985771D02*
X111238094Y-67938152D01*
X111238094Y-67938152D02*
X111142856Y-67938152D01*
X125942856Y-65697342D02*
X125942856Y-66497342D01*
X126457141Y-65697342D02*
X126457141Y-66325914D01*
X126457141Y-66325914D02*
X126399998Y-66440200D01*
X126399998Y-66440200D02*
X126285713Y-66497342D01*
X126285713Y-66497342D02*
X126114284Y-66497342D01*
X126114284Y-66497342D02*
X125999998Y-66440200D01*
X125999998Y-66440200D02*
X125942856Y-66383057D01*
X125371427Y-65697342D02*
X125371427Y-66897342D01*
X125371427Y-65754485D02*
X125257142Y-65697342D01*
X125257142Y-65697342D02*
X125028570Y-65697342D01*
X125028570Y-65697342D02*
X124914284Y-65754485D01*
X124914284Y-65754485D02*
X124857142Y-65811628D01*
X124857142Y-65811628D02*
X124799999Y-65925914D01*
X124799999Y-65925914D02*
X124799999Y-66268771D01*
X124799999Y-66268771D02*
X124857142Y-66383057D01*
X124857142Y-66383057D02*
X124914284Y-66440200D01*
X124914284Y-66440200D02*
X125028570Y-66497342D01*
X125028570Y-66497342D02*
X125257142Y-66497342D01*
X125257142Y-66497342D02*
X125371427Y-66440200D01*
X124342856Y-66440200D02*
X124228570Y-66497342D01*
X124228570Y-66497342D02*
X123999999Y-66497342D01*
X123999999Y-66497342D02*
X123885713Y-66440200D01*
X123885713Y-66440200D02*
X123828570Y-66325914D01*
X123828570Y-66325914D02*
X123828570Y-66268771D01*
X123828570Y-66268771D02*
X123885713Y-66154485D01*
X123885713Y-66154485D02*
X123999999Y-66097342D01*
X123999999Y-66097342D02*
X124171428Y-66097342D01*
X124171428Y-66097342D02*
X124285713Y-66040200D01*
X124285713Y-66040200D02*
X124342856Y-65925914D01*
X124342856Y-65925914D02*
X124342856Y-65868771D01*
X124342856Y-65868771D02*
X124285713Y-65754485D01*
X124285713Y-65754485D02*
X124171428Y-65697342D01*
X124171428Y-65697342D02*
X123999999Y-65697342D01*
X123999999Y-65697342D02*
X123885713Y-65754485D01*
X123314284Y-66040200D02*
X122399999Y-66040200D01*
X121314285Y-66497342D02*
X121314285Y-65868771D01*
X121314285Y-65868771D02*
X121371427Y-65754485D01*
X121371427Y-65754485D02*
X121485713Y-65697342D01*
X121485713Y-65697342D02*
X121714285Y-65697342D01*
X121714285Y-65697342D02*
X121828570Y-65754485D01*
X121314285Y-66440200D02*
X121428570Y-66497342D01*
X121428570Y-66497342D02*
X121714285Y-66497342D01*
X121714285Y-66497342D02*
X121828570Y-66440200D01*
X121828570Y-66440200D02*
X121885713Y-66325914D01*
X121885713Y-66325914D02*
X121885713Y-66211628D01*
X121885713Y-66211628D02*
X121828570Y-66097342D01*
X121828570Y-66097342D02*
X121714285Y-66040200D01*
X121714285Y-66040200D02*
X121428570Y-66040200D01*
X121428570Y-66040200D02*
X121314285Y-65983057D01*
X120228571Y-66497342D02*
X120228571Y-65297342D01*
X120228571Y-66440200D02*
X120342856Y-66497342D01*
X120342856Y-66497342D02*
X120571428Y-66497342D01*
X120571428Y-66497342D02*
X120685713Y-66440200D01*
X120685713Y-66440200D02*
X120742856Y-66383057D01*
X120742856Y-66383057D02*
X120799999Y-66268771D01*
X120799999Y-66268771D02*
X120799999Y-65925914D01*
X120799999Y-65925914D02*
X120742856Y-65811628D01*
X120742856Y-65811628D02*
X120685713Y-65754485D01*
X120685713Y-65754485D02*
X120571428Y-65697342D01*
X120571428Y-65697342D02*
X120342856Y-65697342D01*
X120342856Y-65697342D02*
X120228571Y-65754485D01*
X119142857Y-66497342D02*
X119142857Y-65868771D01*
X119142857Y-65868771D02*
X119199999Y-65754485D01*
X119199999Y-65754485D02*
X119314285Y-65697342D01*
X119314285Y-65697342D02*
X119542857Y-65697342D01*
X119542857Y-65697342D02*
X119657142Y-65754485D01*
X119142857Y-66440200D02*
X119257142Y-66497342D01*
X119257142Y-66497342D02*
X119542857Y-66497342D01*
X119542857Y-66497342D02*
X119657142Y-66440200D01*
X119657142Y-66440200D02*
X119714285Y-66325914D01*
X119714285Y-66325914D02*
X119714285Y-66211628D01*
X119714285Y-66211628D02*
X119657142Y-66097342D01*
X119657142Y-66097342D02*
X119542857Y-66040200D01*
X119542857Y-66040200D02*
X119257142Y-66040200D01*
X119257142Y-66040200D02*
X119142857Y-65983057D01*
X118571428Y-65697342D02*
X118571428Y-66897342D01*
X118571428Y-65754485D02*
X118457143Y-65697342D01*
X118457143Y-65697342D02*
X118228571Y-65697342D01*
X118228571Y-65697342D02*
X118114285Y-65754485D01*
X118114285Y-65754485D02*
X118057143Y-65811628D01*
X118057143Y-65811628D02*
X118000000Y-65925914D01*
X118000000Y-65925914D02*
X118000000Y-66268771D01*
X118000000Y-66268771D02*
X118057143Y-66383057D01*
X118057143Y-66383057D02*
X118114285Y-66440200D01*
X118114285Y-66440200D02*
X118228571Y-66497342D01*
X118228571Y-66497342D02*
X118457143Y-66497342D01*
X118457143Y-66497342D02*
X118571428Y-66440200D01*
X117657143Y-65697342D02*
X117200000Y-65697342D01*
X117485714Y-65297342D02*
X117485714Y-66325914D01*
X117485714Y-66325914D02*
X117428571Y-66440200D01*
X117428571Y-66440200D02*
X117314286Y-66497342D01*
X117314286Y-66497342D02*
X117200000Y-66497342D01*
X116628572Y-66497342D02*
X116742857Y-66440200D01*
X116742857Y-66440200D02*
X116800000Y-66383057D01*
X116800000Y-66383057D02*
X116857143Y-66268771D01*
X116857143Y-66268771D02*
X116857143Y-65925914D01*
X116857143Y-65925914D02*
X116800000Y-65811628D01*
X116800000Y-65811628D02*
X116742857Y-65754485D01*
X116742857Y-65754485D02*
X116628572Y-65697342D01*
X116628572Y-65697342D02*
X116457143Y-65697342D01*
X116457143Y-65697342D02*
X116342857Y-65754485D01*
X116342857Y-65754485D02*
X116285715Y-65811628D01*
X116285715Y-65811628D02*
X116228572Y-65925914D01*
X116228572Y-65925914D02*
X116228572Y-66268771D01*
X116228572Y-66268771D02*
X116285715Y-66383057D01*
X116285715Y-66383057D02*
X116342857Y-66440200D01*
X116342857Y-66440200D02*
X116457143Y-66497342D01*
X116457143Y-66497342D02*
X116628572Y-66497342D01*
X115714286Y-66497342D02*
X115714286Y-65697342D01*
X115714286Y-65925914D02*
X115657143Y-65811628D01*
X115657143Y-65811628D02*
X115600001Y-65754485D01*
X115600001Y-65754485D02*
X115485715Y-65697342D01*
X115485715Y-65697342D02*
X115371429Y-65697342D01*
X113371429Y-66497342D02*
X113771429Y-65925914D01*
X114057143Y-66497342D02*
X114057143Y-65297342D01*
X114057143Y-65297342D02*
X113600000Y-65297342D01*
X113600000Y-65297342D02*
X113485715Y-65354485D01*
X113485715Y-65354485D02*
X113428572Y-65411628D01*
X113428572Y-65411628D02*
X113371429Y-65525914D01*
X113371429Y-65525914D02*
X113371429Y-65697342D01*
X113371429Y-65697342D02*
X113428572Y-65811628D01*
X113428572Y-65811628D02*
X113485715Y-65868771D01*
X113485715Y-65868771D02*
X113600000Y-65925914D01*
X113600000Y-65925914D02*
X114057143Y-65925914D01*
X112400000Y-66440200D02*
X112514286Y-66497342D01*
X112514286Y-66497342D02*
X112742858Y-66497342D01*
X112742858Y-66497342D02*
X112857143Y-66440200D01*
X112857143Y-66440200D02*
X112914286Y-66325914D01*
X112914286Y-66325914D02*
X112914286Y-65868771D01*
X112914286Y-65868771D02*
X112857143Y-65754485D01*
X112857143Y-65754485D02*
X112742858Y-65697342D01*
X112742858Y-65697342D02*
X112514286Y-65697342D01*
X112514286Y-65697342D02*
X112400000Y-65754485D01*
X112400000Y-65754485D02*
X112342858Y-65868771D01*
X112342858Y-65868771D02*
X112342858Y-65983057D01*
X112342858Y-65983057D02*
X112914286Y-66097342D01*
X111942858Y-65697342D02*
X111657144Y-66497342D01*
X111657144Y-66497342D02*
X111371429Y-65697342D01*
X110057143Y-66154485D02*
X109485715Y-66154485D01*
X110171429Y-66497342D02*
X109771429Y-65297342D01*
X109771429Y-65297342D02*
X109371429Y-66497342D01*
M02*
