%TF.GenerationSoftware,KiCad,Pcbnew,10.0.2*%
%TF.CreationDate,2026-09-19T15:06:44-04:00*%
%TF.ProjectId,ups-adaptor,7570732d-6164-4617-9074-6f722e6b6963,rev?*%
%TF.SameCoordinates,Original*%
%TF.FileFunction,Paste,Top*%
%TF.FilePolarity,Positive*%
%FSLAX46Y46*%
G04 Gerber Fmt 4.6, Leading zero omitted, Abs format (unit mm)*
G04 Created by KiCad (PCBNEW 10.0.2) date 2026-09-19 15:06:44*
%MOMM*%
%LPD*%
G01*
G04 APERTURE LIST*
G04 Aperture macros list*
%AMRoundRect*
0 Rectangle with rounded corners*
0 $1 Rounding radius*
0 $2 $3 $4 $5 $6 $7 $8 $9 X,Y pos of 4 corners*
0 Add a 4 corners polygon primitive as box body*
4,1,4,$2,$3,$4,$5,$6,$7,$8,$9,$2,$3,0*
0 Add four circle primitives for the rounded corners*
1,1,$1+$1,$2,$3*
1,1,$1+$1,$4,$5*
1,1,$1+$1,$6,$7*
1,1,$1+$1,$8,$9*
0 Add four rect primitives between the rounded corners*
20,1,$1+$1,$2,$3,$4,$5,0*
20,1,$1+$1,$4,$5,$6,$7,0*
20,1,$1+$1,$6,$7,$8,$9,0*
20,1,$1+$1,$8,$9,$2,$3,0*%
G04 Aperture macros list end*
%ADD10R,0.900000X0.900000*%
%ADD11R,1.500000X0.900000*%
%ADD12R,0.900000X1.500000*%
%ADD13RoundRect,0.250000X0.475000X-0.250000X0.475000X0.250000X-0.475000X0.250000X-0.475000X-0.250000X0*%
%ADD14RoundRect,0.250000X0.650000X-0.325000X0.650000X0.325000X-0.650000X0.325000X-0.650000X-0.325000X0*%
%ADD15RoundRect,0.135000X-0.135000X-0.185000X0.135000X-0.185000X0.135000X0.185000X-0.135000X0.185000X0*%
%ADD16RoundRect,0.140000X-0.140000X-0.170000X0.140000X-0.170000X0.140000X0.170000X-0.140000X0.170000X0*%
%ADD17RoundRect,0.150000X0.150000X-0.825000X0.150000X0.825000X-0.150000X0.825000X-0.150000X-0.825000X0*%
%ADD18R,0.750000X1.000000*%
%ADD19RoundRect,0.140000X0.170000X-0.140000X0.170000X0.140000X-0.170000X0.140000X-0.170000X-0.140000X0*%
%ADD20RoundRect,0.218750X-0.218750X-0.256250X0.218750X-0.256250X0.218750X0.256250X-0.218750X0.256250X0*%
%ADD21RoundRect,0.135000X0.185000X-0.135000X0.185000X0.135000X-0.185000X0.135000X-0.185000X-0.135000X0*%
%ADD22RoundRect,0.250000X-0.325000X-0.650000X0.325000X-0.650000X0.325000X0.650000X-0.325000X0.650000X0*%
%ADD23RoundRect,0.150000X-0.512500X-0.150000X0.512500X-0.150000X0.512500X0.150000X-0.512500X0.150000X0*%
%ADD24RoundRect,0.175000X-0.175000X-0.625000X0.175000X-0.625000X0.175000X0.625000X-0.175000X0.625000X0*%
%ADD25RoundRect,0.300000X-0.300000X-0.970000X0.300000X-0.970000X0.300000X0.970000X-0.300000X0.970000X0*%
%ADD26RoundRect,0.150000X-0.587500X-0.150000X0.587500X-0.150000X0.587500X0.150000X-0.587500X0.150000X0*%
%ADD27RoundRect,0.150000X-0.150000X-0.575000X0.150000X-0.575000X0.150000X0.575000X-0.150000X0.575000X0*%
%ADD28RoundRect,0.075000X-0.075000X-0.650000X0.075000X-0.650000X0.075000X0.650000X-0.075000X0.650000X0*%
%ADD29RoundRect,0.375000X-0.625000X-0.375000X0.625000X-0.375000X0.625000X0.375000X-0.625000X0.375000X0*%
%ADD30RoundRect,0.500000X-0.500000X-1.400000X0.500000X-1.400000X0.500000X1.400000X-0.500000X1.400000X0*%
%ADD31RoundRect,0.250000X-0.375000X-0.625000X0.375000X-0.625000X0.375000X0.625000X-0.375000X0.625000X0*%
%ADD32RoundRect,0.250000X-0.250000X-0.475000X0.250000X-0.475000X0.250000X0.475000X-0.250000X0.475000X0*%
%ADD33RoundRect,0.150000X0.150000X-0.587500X0.150000X0.587500X-0.150000X0.587500X-0.150000X-0.587500X0*%
G04 APERTURE END LIST*
D10*
%TO.C,U1*%
X115050000Y-67510000D03*
X115050000Y-68910000D03*
X115050000Y-70310000D03*
X116450000Y-67510000D03*
X116450000Y-68910000D03*
X116450000Y-70310000D03*
X117850000Y-67510000D03*
X117850000Y-68910000D03*
X117850000Y-70310000D03*
D11*
X109200000Y-61190000D03*
X109200000Y-62460000D03*
X109200000Y-63730000D03*
X109200000Y-65000000D03*
X109200000Y-66270000D03*
X109200000Y-67540000D03*
X109200000Y-68810000D03*
X109200000Y-70080000D03*
X109200000Y-71350000D03*
X109200000Y-72620000D03*
X109200000Y-73890000D03*
X109200000Y-75160000D03*
X109200000Y-76430000D03*
X109200000Y-77700000D03*
D12*
X110965000Y-78950000D03*
X112235000Y-78950000D03*
X113505000Y-78950000D03*
X114775000Y-78950000D03*
X116045000Y-78950000D03*
X117315000Y-78950000D03*
X118585000Y-78950000D03*
X119855000Y-78950000D03*
X121125000Y-78950000D03*
X122395000Y-78950000D03*
X123665000Y-78950000D03*
X124935000Y-78950000D03*
D11*
X126700000Y-77700000D03*
X126700000Y-76430000D03*
X126700000Y-75160000D03*
X126700000Y-73890000D03*
X126700000Y-72620000D03*
X126700000Y-71350000D03*
X126700000Y-70080000D03*
X126700000Y-68810000D03*
X126700000Y-67540000D03*
X126700000Y-66270000D03*
X126700000Y-65000000D03*
X126700000Y-63730000D03*
X126700000Y-62460000D03*
X126700000Y-61190000D03*
%TD*%
D13*
%TO.C,C5*%
X102575000Y-74645000D03*
X102575000Y-72745000D03*
%TD*%
D14*
%TO.C,C2*%
X107745000Y-99770000D03*
X107745000Y-96820000D03*
%TD*%
D15*
%TO.C,R1*%
X123015000Y-89965000D03*
X124035000Y-89965000D03*
%TD*%
D16*
%TO.C,C9*%
X105025000Y-74455000D03*
X105985000Y-74455000D03*
%TD*%
D17*
%TO.C,U2*%
X121850000Y-100670000D03*
X123120000Y-100670000D03*
X124390000Y-100670000D03*
X125660000Y-100670000D03*
X126930000Y-100670000D03*
X128200000Y-100670000D03*
X129470000Y-100670000D03*
X130740000Y-100670000D03*
X130740000Y-95720000D03*
X129470000Y-95720000D03*
X128200000Y-95720000D03*
X126930000Y-95720000D03*
X125660000Y-95720000D03*
X124390000Y-95720000D03*
X123120000Y-95720000D03*
X121850000Y-95720000D03*
%TD*%
D18*
%TO.C,SW1*%
X102675000Y-68450000D03*
X102675000Y-62450000D03*
X106425000Y-68450000D03*
X106425000Y-62450000D03*
%TD*%
D19*
%TO.C,C3*%
X119555000Y-96385000D03*
X119555000Y-95425000D03*
%TD*%
D20*
%TO.C,D3*%
X115162500Y-89950000D03*
X116737500Y-89950000D03*
%TD*%
D21*
%TO.C,R9*%
X134065000Y-114935000D03*
X134065000Y-113915000D03*
%TD*%
D22*
%TO.C,C7*%
X101420000Y-97645000D03*
X104370000Y-97645000D03*
%TD*%
D18*
%TO.C,SW2*%
X129175000Y-68450000D03*
X129175000Y-62450000D03*
X132925000Y-68450000D03*
X132925000Y-62450000D03*
%TD*%
D15*
%TO.C,R7*%
X117015000Y-82465000D03*
X118035000Y-82465000D03*
%TD*%
D23*
%TO.C,D1*%
X126007500Y-105745000D03*
X126007500Y-106695000D03*
X126007500Y-107645000D03*
X128282500Y-107645000D03*
X128282500Y-106695000D03*
X128282500Y-105745000D03*
%TD*%
D21*
%TO.C,R2*%
X124565000Y-86935000D03*
X124565000Y-85915000D03*
%TD*%
%TO.C,R10*%
X120565000Y-114935000D03*
X120565000Y-113915000D03*
%TD*%
D24*
%TO.C,J2*%
X107990000Y-104950000D03*
X109990000Y-104950000D03*
X111990000Y-104950000D03*
X113990000Y-104950000D03*
X114990000Y-104950000D03*
X112990000Y-104950000D03*
X110990000Y-104950000D03*
X108990000Y-104950000D03*
X106990000Y-104950000D03*
D25*
X104590000Y-112300000D03*
X117390000Y-112300000D03*
%TD*%
D21*
%TO.C,R3*%
X109065000Y-83435000D03*
X109065000Y-82415000D03*
%TD*%
%TO.C,R6*%
X130065000Y-74935000D03*
X130065000Y-73915000D03*
%TD*%
%TO.C,R11*%
X116065000Y-85435000D03*
X116065000Y-84415000D03*
%TD*%
D16*
%TO.C,C8*%
X101025000Y-104455000D03*
X101985000Y-104455000D03*
%TD*%
D23*
%TO.C,D2*%
X115007500Y-100245000D03*
X115007500Y-101195000D03*
X115007500Y-102145000D03*
X117282500Y-102145000D03*
X117282500Y-101195000D03*
X117282500Y-100245000D03*
%TD*%
D21*
%TO.C,R4*%
X134065000Y-71435000D03*
X134065000Y-70415000D03*
%TD*%
D15*
%TO.C,R8*%
X122015000Y-82465000D03*
X123035000Y-82465000D03*
%TD*%
D26*
%TO.C,Q1*%
X111587500Y-82745000D03*
X111587500Y-84645000D03*
X113462500Y-83695000D03*
%TD*%
D27*
%TO.C,J1*%
X124090000Y-110755000D03*
X124890000Y-110755000D03*
D28*
X126090000Y-110755000D03*
X127090000Y-110755000D03*
X127590000Y-110755000D03*
X128590000Y-110755000D03*
D27*
X129790000Y-110755000D03*
X130590000Y-110755000D03*
X130590000Y-110755000D03*
X129790000Y-110755000D03*
D28*
X129090000Y-110755000D03*
X128090000Y-110755000D03*
X126590000Y-110755000D03*
X125590000Y-110755000D03*
D27*
X124890000Y-110755000D03*
X124090000Y-110755000D03*
%TD*%
D23*
%TO.C,U4*%
X102507500Y-100245000D03*
X102507500Y-101195000D03*
X102507500Y-102145000D03*
X104782500Y-102145000D03*
X104782500Y-100245000D03*
%TD*%
D16*
%TO.C,C6*%
X125025000Y-103455000D03*
X125985000Y-103455000D03*
%TD*%
%TO.C,C1*%
X105025000Y-72455000D03*
X105985000Y-72455000D03*
%TD*%
D29*
%TO.C,U3*%
X110845000Y-92795000D03*
X110845000Y-95095000D03*
D30*
X117145000Y-95095000D03*
D29*
X110845000Y-97395000D03*
%TD*%
D15*
%TO.C,R12*%
X109515000Y-86965000D03*
X110535000Y-86965000D03*
%TD*%
D31*
%TO.C,F1*%
X130975000Y-107625000D03*
X133775000Y-107625000D03*
%TD*%
D32*
%TO.C,C4*%
X110345000Y-100475000D03*
X112245000Y-100475000D03*
%TD*%
D21*
%TO.C,R5*%
X132065000Y-73435000D03*
X132065000Y-72415000D03*
%TD*%
D20*
%TO.C,D4*%
X119162500Y-89950000D03*
X120737500Y-89950000D03*
%TD*%
D33*
%TO.C,Q2*%
X130345000Y-79862500D03*
X132245000Y-79862500D03*
X131295000Y-77987500D03*
%TD*%
M02*
