%TF.GenerationSoftware,KiCad,Pcbnew,10.0.2*%
%TF.CreationDate,2026-09-19T15:06:44-04:00*%
%TF.ProjectId,ups-adaptor,7570732d-6164-4617-9074-6f722e6b6963,rev?*%
%TF.SameCoordinates,Original*%
%TF.FileFunction,Legend,Top*%
%TF.FilePolarity,Positive*%
%FSLAX46Y46*%
G04 Gerber Fmt 4.6, Leading zero omitted, Abs format (unit mm)*
G04 Created by KiCad (PCBNEW 10.0.2) date 2026-09-19 15:06:44*
%MOMM*%
%LPD*%
G01*
G04 APERTURE LIST*
%ADD10C,0.325000*%
%ADD11C,0.250000*%
%ADD12C,0.150000*%
G04 APERTURE END LIST*
D10*
X102880548Y-99050920D02*
G75*
G02*
X102555548Y-99050920I-162500J0D01*
G01*
X102555548Y-99050920D02*
G75*
G02*
X102880548Y-99050920I162500J0D01*
G01*
X107885288Y-60929527D02*
G75*
G02*
X107560288Y-60929527I-162500J0D01*
G01*
X107560288Y-60929527D02*
G75*
G02*
X107885288Y-60929527I162500J0D01*
G01*
X111007500Y-91245000D02*
G75*
G02*
X110682500Y-91245000I-162500J0D01*
G01*
X110682500Y-91245000D02*
G75*
G02*
X111007500Y-91245000I162500J0D01*
G01*
X111309649Y-81535145D02*
G75*
G02*
X110984649Y-81535145I-162500J0D01*
G01*
X110984649Y-81535145D02*
G75*
G02*
X111309649Y-81535145I162500J0D01*
G01*
D11*
X113937500Y-90450000D02*
X113937500Y-89450000D01*
D10*
X115776250Y-99194944D02*
G75*
G02*
X115451250Y-99194944I-162500J0D01*
G01*
X115451250Y-99194944D02*
G75*
G02*
X115776250Y-99194944I162500J0D01*
G01*
D11*
X117937500Y-90450000D02*
X117937500Y-89450000D01*
D10*
X120487499Y-100670000D02*
G75*
G02*
X120162499Y-100670000I-162500J0D01*
G01*
X120162499Y-100670000D02*
G75*
G02*
X120487499Y-100670000I162500J0D01*
G01*
X126170000Y-104532500D02*
G75*
G02*
X125845000Y-104532500I-162500J0D01*
G01*
X125845000Y-104532500D02*
G75*
G02*
X126170000Y-104532500I162500J0D01*
G01*
X129297645Y-80302850D02*
G75*
G02*
X128972645Y-80302850I-162500J0D01*
G01*
X128972645Y-80302850D02*
G75*
G02*
X129297645Y-80302850I162500J0D01*
G01*
D12*
X105613649Y-83223779D02*
X105518411Y-83176160D01*
X105518411Y-83176160D02*
X105375554Y-83176160D01*
X105375554Y-83176160D02*
X105232697Y-83223779D01*
X105232697Y-83223779D02*
X105137459Y-83319017D01*
X105137459Y-83319017D02*
X105089840Y-83414255D01*
X105089840Y-83414255D02*
X105042221Y-83604731D01*
X105042221Y-83604731D02*
X105042221Y-83747588D01*
X105042221Y-83747588D02*
X105089840Y-83938064D01*
X105089840Y-83938064D02*
X105137459Y-84033302D01*
X105137459Y-84033302D02*
X105232697Y-84128541D01*
X105232697Y-84128541D02*
X105375554Y-84176160D01*
X105375554Y-84176160D02*
X105470792Y-84176160D01*
X105470792Y-84176160D02*
X105613649Y-84128541D01*
X105613649Y-84128541D02*
X105661268Y-84080921D01*
X105661268Y-84080921D02*
X105661268Y-83747588D01*
X105661268Y-83747588D02*
X105470792Y-83747588D01*
X106089840Y-84176160D02*
X106089840Y-83176160D01*
X106089840Y-83176160D02*
X106661268Y-84176160D01*
X106661268Y-84176160D02*
X106661268Y-83176160D01*
X107137459Y-84176160D02*
X107137459Y-83176160D01*
X107137459Y-83176160D02*
X107375554Y-83176160D01*
X107375554Y-83176160D02*
X107518411Y-83223779D01*
X107518411Y-83223779D02*
X107613649Y-83319017D01*
X107613649Y-83319017D02*
X107661268Y-83414255D01*
X107661268Y-83414255D02*
X107708887Y-83604731D01*
X107708887Y-83604731D02*
X107708887Y-83747588D01*
X107708887Y-83747588D02*
X107661268Y-83938064D01*
X107661268Y-83938064D02*
X107613649Y-84033302D01*
X107613649Y-84033302D02*
X107518411Y-84128541D01*
X107518411Y-84128541D02*
X107375554Y-84176160D01*
X107375554Y-84176160D02*
X107137459Y-84176160D01*
X105456541Y-77904819D02*
X106075588Y-77904819D01*
X106075588Y-77904819D02*
X105742255Y-78285771D01*
X105742255Y-78285771D02*
X105885112Y-78285771D01*
X105885112Y-78285771D02*
X105980350Y-78333390D01*
X105980350Y-78333390D02*
X106027969Y-78381009D01*
X106027969Y-78381009D02*
X106075588Y-78476247D01*
X106075588Y-78476247D02*
X106075588Y-78714342D01*
X106075588Y-78714342D02*
X106027969Y-78809580D01*
X106027969Y-78809580D02*
X105980350Y-78857200D01*
X105980350Y-78857200D02*
X105885112Y-78904819D01*
X105885112Y-78904819D02*
X105599398Y-78904819D01*
X105599398Y-78904819D02*
X105504160Y-78857200D01*
X105504160Y-78857200D02*
X105456541Y-78809580D01*
X106361303Y-77904819D02*
X106694636Y-78904819D01*
X106694636Y-78904819D02*
X107027969Y-77904819D01*
X107266065Y-77904819D02*
X107885112Y-77904819D01*
X107885112Y-77904819D02*
X107551779Y-78285771D01*
X107551779Y-78285771D02*
X107694636Y-78285771D01*
X107694636Y-78285771D02*
X107789874Y-78333390D01*
X107789874Y-78333390D02*
X107837493Y-78381009D01*
X107837493Y-78381009D02*
X107885112Y-78476247D01*
X107885112Y-78476247D02*
X107885112Y-78714342D01*
X107885112Y-78714342D02*
X107837493Y-78809580D01*
X107837493Y-78809580D02*
X107789874Y-78857200D01*
X107789874Y-78857200D02*
X107694636Y-78904819D01*
X107694636Y-78904819D02*
X107408922Y-78904819D01*
X107408922Y-78904819D02*
X107313684Y-78857200D01*
X107313684Y-78857200D02*
X107266065Y-78809580D01*
X106027969Y-80444819D02*
X105551779Y-80444819D01*
X105551779Y-80444819D02*
X105504160Y-80921009D01*
X105504160Y-80921009D02*
X105551779Y-80873390D01*
X105551779Y-80873390D02*
X105647017Y-80825771D01*
X105647017Y-80825771D02*
X105885112Y-80825771D01*
X105885112Y-80825771D02*
X105980350Y-80873390D01*
X105980350Y-80873390D02*
X106027969Y-80921009D01*
X106027969Y-80921009D02*
X106075588Y-81016247D01*
X106075588Y-81016247D02*
X106075588Y-81254342D01*
X106075588Y-81254342D02*
X106027969Y-81349580D01*
X106027969Y-81349580D02*
X105980350Y-81397200D01*
X105980350Y-81397200D02*
X105885112Y-81444819D01*
X105885112Y-81444819D02*
X105647017Y-81444819D01*
X105647017Y-81444819D02*
X105551779Y-81397200D01*
X105551779Y-81397200D02*
X105504160Y-81349580D01*
X106361303Y-80444819D02*
X106694636Y-81444819D01*
X106694636Y-81444819D02*
X107027969Y-80444819D01*
X106075588Y-86524819D02*
X105504160Y-86524819D01*
X105789874Y-86524819D02*
X105789874Y-85524819D01*
X105789874Y-85524819D02*
X105694636Y-85667676D01*
X105694636Y-85667676D02*
X105599398Y-85762914D01*
X105599398Y-85762914D02*
X105504160Y-85810533D01*
X106694636Y-85524819D02*
X106789874Y-85524819D01*
X106789874Y-85524819D02*
X106885112Y-85572438D01*
X106885112Y-85572438D02*
X106932731Y-85620057D01*
X106932731Y-85620057D02*
X106980350Y-85715295D01*
X106980350Y-85715295D02*
X107027969Y-85905771D01*
X107027969Y-85905771D02*
X107027969Y-86143866D01*
X107027969Y-86143866D02*
X106980350Y-86334342D01*
X106980350Y-86334342D02*
X106932731Y-86429580D01*
X106932731Y-86429580D02*
X106885112Y-86477200D01*
X106885112Y-86477200D02*
X106789874Y-86524819D01*
X106789874Y-86524819D02*
X106694636Y-86524819D01*
X106694636Y-86524819D02*
X106599398Y-86477200D01*
X106599398Y-86477200D02*
X106551779Y-86429580D01*
X106551779Y-86429580D02*
X106504160Y-86334342D01*
X106504160Y-86334342D02*
X106456541Y-86143866D01*
X106456541Y-86143866D02*
X106456541Y-85905771D01*
X106456541Y-85905771D02*
X106504160Y-85715295D01*
X106504160Y-85715295D02*
X106551779Y-85620057D01*
X106551779Y-85620057D02*
X106599398Y-85572438D01*
X106599398Y-85572438D02*
X106694636Y-85524819D01*
X106075588Y-89064819D02*
X105504160Y-89064819D01*
X105789874Y-89064819D02*
X105789874Y-88064819D01*
X105789874Y-88064819D02*
X105694636Y-88207676D01*
X105694636Y-88207676D02*
X105599398Y-88302914D01*
X105599398Y-88302914D02*
X105504160Y-88350533D01*
X107027969Y-89064819D02*
X106456541Y-89064819D01*
X106742255Y-89064819D02*
X106742255Y-88064819D01*
X106742255Y-88064819D02*
X106647017Y-88207676D01*
X106647017Y-88207676D02*
X106551779Y-88302914D01*
X106551779Y-88302914D02*
X106456541Y-88350533D01*
X106075588Y-91604819D02*
X105504160Y-91604819D01*
X105789874Y-91604819D02*
X105789874Y-90604819D01*
X105789874Y-90604819D02*
X105694636Y-90747676D01*
X105694636Y-90747676D02*
X105599398Y-90842914D01*
X105599398Y-90842914D02*
X105504160Y-90890533D01*
X106456541Y-90700057D02*
X106504160Y-90652438D01*
X106504160Y-90652438D02*
X106599398Y-90604819D01*
X106599398Y-90604819D02*
X106837493Y-90604819D01*
X106837493Y-90604819D02*
X106932731Y-90652438D01*
X106932731Y-90652438D02*
X106980350Y-90700057D01*
X106980350Y-90700057D02*
X107027969Y-90795295D01*
X107027969Y-90795295D02*
X107027969Y-90890533D01*
X107027969Y-90890533D02*
X106980350Y-91033390D01*
X106980350Y-91033390D02*
X106408922Y-91604819D01*
X106408922Y-91604819D02*
X107027969Y-91604819D01*
X106075588Y-94144819D02*
X105504160Y-94144819D01*
X105789874Y-94144819D02*
X105789874Y-93144819D01*
X105789874Y-93144819D02*
X105694636Y-93287676D01*
X105694636Y-93287676D02*
X105599398Y-93382914D01*
X105599398Y-93382914D02*
X105504160Y-93430533D01*
X106408922Y-93144819D02*
X107027969Y-93144819D01*
X107027969Y-93144819D02*
X106694636Y-93525771D01*
X106694636Y-93525771D02*
X106837493Y-93525771D01*
X106837493Y-93525771D02*
X106932731Y-93573390D01*
X106932731Y-93573390D02*
X106980350Y-93621009D01*
X106980350Y-93621009D02*
X107027969Y-93716247D01*
X107027969Y-93716247D02*
X107027969Y-93954342D01*
X107027969Y-93954342D02*
X106980350Y-94049580D01*
X106980350Y-94049580D02*
X106932731Y-94097200D01*
X106932731Y-94097200D02*
X106837493Y-94144819D01*
X106837493Y-94144819D02*
X106551779Y-94144819D01*
X106551779Y-94144819D02*
X106456541Y-94097200D01*
X106456541Y-94097200D02*
X106408922Y-94049580D01*
X103097618Y-70799819D02*
X102764285Y-70323628D01*
X102526190Y-70799819D02*
X102526190Y-69799819D01*
X102526190Y-69799819D02*
X102907142Y-69799819D01*
X102907142Y-69799819D02*
X103002380Y-69847438D01*
X103002380Y-69847438D02*
X103049999Y-69895057D01*
X103049999Y-69895057D02*
X103097618Y-69990295D01*
X103097618Y-69990295D02*
X103097618Y-70133152D01*
X103097618Y-70133152D02*
X103049999Y-70228390D01*
X103049999Y-70228390D02*
X103002380Y-70276009D01*
X103002380Y-70276009D02*
X102907142Y-70323628D01*
X102907142Y-70323628D02*
X102526190Y-70323628D01*
X103526190Y-70276009D02*
X103859523Y-70276009D01*
X104002380Y-70799819D02*
X103526190Y-70799819D01*
X103526190Y-70799819D02*
X103526190Y-69799819D01*
X103526190Y-69799819D02*
X104002380Y-69799819D01*
X104383333Y-70752200D02*
X104526190Y-70799819D01*
X104526190Y-70799819D02*
X104764285Y-70799819D01*
X104764285Y-70799819D02*
X104859523Y-70752200D01*
X104859523Y-70752200D02*
X104907142Y-70704580D01*
X104907142Y-70704580D02*
X104954761Y-70609342D01*
X104954761Y-70609342D02*
X104954761Y-70514104D01*
X104954761Y-70514104D02*
X104907142Y-70418866D01*
X104907142Y-70418866D02*
X104859523Y-70371247D01*
X104859523Y-70371247D02*
X104764285Y-70323628D01*
X104764285Y-70323628D02*
X104573809Y-70276009D01*
X104573809Y-70276009D02*
X104478571Y-70228390D01*
X104478571Y-70228390D02*
X104430952Y-70180771D01*
X104430952Y-70180771D02*
X104383333Y-70085533D01*
X104383333Y-70085533D02*
X104383333Y-69990295D01*
X104383333Y-69990295D02*
X104430952Y-69895057D01*
X104430952Y-69895057D02*
X104478571Y-69847438D01*
X104478571Y-69847438D02*
X104573809Y-69799819D01*
X104573809Y-69799819D02*
X104811904Y-69799819D01*
X104811904Y-69799819D02*
X104954761Y-69847438D01*
X105383333Y-70276009D02*
X105716666Y-70276009D01*
X105859523Y-70799819D02*
X105383333Y-70799819D01*
X105383333Y-70799819D02*
X105383333Y-69799819D01*
X105383333Y-69799819D02*
X105859523Y-69799819D01*
X106145238Y-69799819D02*
X106716666Y-69799819D01*
X106430952Y-70799819D02*
X106430952Y-69799819D01*
X113359003Y-88759363D02*
X113501860Y-88806982D01*
X113501860Y-88806982D02*
X113739955Y-88806982D01*
X113739955Y-88806982D02*
X113835193Y-88759363D01*
X113835193Y-88759363D02*
X113882812Y-88711743D01*
X113882812Y-88711743D02*
X113930431Y-88616505D01*
X113930431Y-88616505D02*
X113930431Y-88521267D01*
X113930431Y-88521267D02*
X113882812Y-88426029D01*
X113882812Y-88426029D02*
X113835193Y-88378410D01*
X113835193Y-88378410D02*
X113739955Y-88330791D01*
X113739955Y-88330791D02*
X113549479Y-88283172D01*
X113549479Y-88283172D02*
X113454241Y-88235553D01*
X113454241Y-88235553D02*
X113406622Y-88187934D01*
X113406622Y-88187934D02*
X113359003Y-88092696D01*
X113359003Y-88092696D02*
X113359003Y-87997458D01*
X113359003Y-87997458D02*
X113406622Y-87902220D01*
X113406622Y-87902220D02*
X113454241Y-87854601D01*
X113454241Y-87854601D02*
X113549479Y-87806982D01*
X113549479Y-87806982D02*
X113787574Y-87806982D01*
X113787574Y-87806982D02*
X113930431Y-87854601D01*
X114216146Y-87806982D02*
X114787574Y-87806982D01*
X114501860Y-88806982D02*
X114501860Y-87806982D01*
X115073289Y-88521267D02*
X115549479Y-88521267D01*
X114978051Y-88806982D02*
X115311384Y-87806982D01*
X115311384Y-87806982D02*
X115644717Y-88806982D01*
X115835194Y-87806982D02*
X116406622Y-87806982D01*
X116120908Y-88806982D02*
X116120908Y-87806982D01*
X116739956Y-87806982D02*
X116739956Y-88616505D01*
X116739956Y-88616505D02*
X116787575Y-88711743D01*
X116787575Y-88711743D02*
X116835194Y-88759363D01*
X116835194Y-88759363D02*
X116930432Y-88806982D01*
X116930432Y-88806982D02*
X117120908Y-88806982D01*
X117120908Y-88806982D02*
X117216146Y-88759363D01*
X117216146Y-88759363D02*
X117263765Y-88711743D01*
X117263765Y-88711743D02*
X117311384Y-88616505D01*
X117311384Y-88616505D02*
X117311384Y-87806982D01*
X117739956Y-88759363D02*
X117882813Y-88806982D01*
X117882813Y-88806982D02*
X118120908Y-88806982D01*
X118120908Y-88806982D02*
X118216146Y-88759363D01*
X118216146Y-88759363D02*
X118263765Y-88711743D01*
X118263765Y-88711743D02*
X118311384Y-88616505D01*
X118311384Y-88616505D02*
X118311384Y-88521267D01*
X118311384Y-88521267D02*
X118263765Y-88426029D01*
X118263765Y-88426029D02*
X118216146Y-88378410D01*
X118216146Y-88378410D02*
X118120908Y-88330791D01*
X118120908Y-88330791D02*
X117930432Y-88283172D01*
X117930432Y-88283172D02*
X117835194Y-88235553D01*
X117835194Y-88235553D02*
X117787575Y-88187934D01*
X117787575Y-88187934D02*
X117739956Y-88092696D01*
X117739956Y-88092696D02*
X117739956Y-87997458D01*
X117739956Y-87997458D02*
X117787575Y-87902220D01*
X117787575Y-87902220D02*
X117835194Y-87854601D01*
X117835194Y-87854601D02*
X117930432Y-87806982D01*
X117930432Y-87806982D02*
X118168527Y-87806982D01*
X118168527Y-87806982D02*
X118311384Y-87854601D01*
X119554760Y-88006009D02*
X119221427Y-88006009D01*
X119221427Y-88529819D02*
X119221427Y-87529819D01*
X119221427Y-87529819D02*
X119697617Y-87529819D01*
X120030951Y-88244104D02*
X120507141Y-88244104D01*
X119935713Y-88529819D02*
X120269046Y-87529819D01*
X120269046Y-87529819D02*
X120602379Y-88529819D01*
X120935713Y-87529819D02*
X120935713Y-88339342D01*
X120935713Y-88339342D02*
X120983332Y-88434580D01*
X120983332Y-88434580D02*
X121030951Y-88482200D01*
X121030951Y-88482200D02*
X121126189Y-88529819D01*
X121126189Y-88529819D02*
X121316665Y-88529819D01*
X121316665Y-88529819D02*
X121411903Y-88482200D01*
X121411903Y-88482200D02*
X121459522Y-88434580D01*
X121459522Y-88434580D02*
X121507141Y-88339342D01*
X121507141Y-88339342D02*
X121507141Y-87529819D01*
X122459522Y-88529819D02*
X121983332Y-88529819D01*
X121983332Y-88529819D02*
X121983332Y-87529819D01*
X122649999Y-87529819D02*
X123221427Y-87529819D01*
X122935713Y-88529819D02*
X122935713Y-87529819D01*
X123459048Y-109039819D02*
X123459048Y-108039819D01*
X123459048Y-108039819D02*
X123840000Y-108039819D01*
X123840000Y-108039819D02*
X123935238Y-108087438D01*
X123935238Y-108087438D02*
X123982857Y-108135057D01*
X123982857Y-108135057D02*
X124030476Y-108230295D01*
X124030476Y-108230295D02*
X124030476Y-108373152D01*
X124030476Y-108373152D02*
X123982857Y-108468390D01*
X123982857Y-108468390D02*
X123935238Y-108516009D01*
X123935238Y-108516009D02*
X123840000Y-108563628D01*
X123840000Y-108563628D02*
X123459048Y-108563628D01*
X124363810Y-108039819D02*
X124601905Y-109039819D01*
X124601905Y-109039819D02*
X124792381Y-108325533D01*
X124792381Y-108325533D02*
X124982857Y-109039819D01*
X124982857Y-109039819D02*
X125220953Y-108039819D01*
X126173333Y-109039819D02*
X125840000Y-108563628D01*
X125601905Y-109039819D02*
X125601905Y-108039819D01*
X125601905Y-108039819D02*
X125982857Y-108039819D01*
X125982857Y-108039819D02*
X126078095Y-108087438D01*
X126078095Y-108087438D02*
X126125714Y-108135057D01*
X126125714Y-108135057D02*
X126173333Y-108230295D01*
X126173333Y-108230295D02*
X126173333Y-108373152D01*
X126173333Y-108373152D02*
X126125714Y-108468390D01*
X126125714Y-108468390D02*
X126078095Y-108516009D01*
X126078095Y-108516009D02*
X125982857Y-108563628D01*
X125982857Y-108563628D02*
X125601905Y-108563628D01*
X127316190Y-107992200D02*
X126459048Y-109277914D01*
X127649524Y-109039819D02*
X127649524Y-108039819D01*
X127649524Y-108039819D02*
X128030476Y-108039819D01*
X128030476Y-108039819D02*
X128125714Y-108087438D01*
X128125714Y-108087438D02*
X128173333Y-108135057D01*
X128173333Y-108135057D02*
X128220952Y-108230295D01*
X128220952Y-108230295D02*
X128220952Y-108373152D01*
X128220952Y-108373152D02*
X128173333Y-108468390D01*
X128173333Y-108468390D02*
X128125714Y-108516009D01*
X128125714Y-108516009D02*
X128030476Y-108563628D01*
X128030476Y-108563628D02*
X127649524Y-108563628D01*
X129220952Y-109039819D02*
X128887619Y-108563628D01*
X128649524Y-109039819D02*
X128649524Y-108039819D01*
X128649524Y-108039819D02*
X129030476Y-108039819D01*
X129030476Y-108039819D02*
X129125714Y-108087438D01*
X129125714Y-108087438D02*
X129173333Y-108135057D01*
X129173333Y-108135057D02*
X129220952Y-108230295D01*
X129220952Y-108230295D02*
X129220952Y-108373152D01*
X129220952Y-108373152D02*
X129173333Y-108468390D01*
X129173333Y-108468390D02*
X129125714Y-108516009D01*
X129125714Y-108516009D02*
X129030476Y-108563628D01*
X129030476Y-108563628D02*
X128649524Y-108563628D01*
X129840000Y-108039819D02*
X130030476Y-108039819D01*
X130030476Y-108039819D02*
X130125714Y-108087438D01*
X130125714Y-108087438D02*
X130220952Y-108182676D01*
X130220952Y-108182676D02*
X130268571Y-108373152D01*
X130268571Y-108373152D02*
X130268571Y-108706485D01*
X130268571Y-108706485D02*
X130220952Y-108896961D01*
X130220952Y-108896961D02*
X130125714Y-108992200D01*
X130125714Y-108992200D02*
X130030476Y-109039819D01*
X130030476Y-109039819D02*
X129840000Y-109039819D01*
X129840000Y-109039819D02*
X129744762Y-108992200D01*
X129744762Y-108992200D02*
X129649524Y-108896961D01*
X129649524Y-108896961D02*
X129601905Y-108706485D01*
X129601905Y-108706485D02*
X129601905Y-108373152D01*
X129601905Y-108373152D02*
X129649524Y-108182676D01*
X129649524Y-108182676D02*
X129744762Y-108087438D01*
X129744762Y-108087438D02*
X129840000Y-108039819D01*
X131220952Y-108087438D02*
X131125714Y-108039819D01*
X131125714Y-108039819D02*
X130982857Y-108039819D01*
X130982857Y-108039819D02*
X130840000Y-108087438D01*
X130840000Y-108087438D02*
X130744762Y-108182676D01*
X130744762Y-108182676D02*
X130697143Y-108277914D01*
X130697143Y-108277914D02*
X130649524Y-108468390D01*
X130649524Y-108468390D02*
X130649524Y-108611247D01*
X130649524Y-108611247D02*
X130697143Y-108801723D01*
X130697143Y-108801723D02*
X130744762Y-108896961D01*
X130744762Y-108896961D02*
X130840000Y-108992200D01*
X130840000Y-108992200D02*
X130982857Y-109039819D01*
X130982857Y-109039819D02*
X131078095Y-109039819D01*
X131078095Y-109039819D02*
X131220952Y-108992200D01*
X131220952Y-108992200D02*
X131268571Y-108944580D01*
X131268571Y-108944580D02*
X131268571Y-108611247D01*
X131268571Y-108611247D02*
X131078095Y-108611247D01*
X129692857Y-70276009D02*
X129835714Y-70323628D01*
X129835714Y-70323628D02*
X129883333Y-70371247D01*
X129883333Y-70371247D02*
X129930952Y-70466485D01*
X129930952Y-70466485D02*
X129930952Y-70609342D01*
X129930952Y-70609342D02*
X129883333Y-70704580D01*
X129883333Y-70704580D02*
X129835714Y-70752200D01*
X129835714Y-70752200D02*
X129740476Y-70799819D01*
X129740476Y-70799819D02*
X129359524Y-70799819D01*
X129359524Y-70799819D02*
X129359524Y-69799819D01*
X129359524Y-69799819D02*
X129692857Y-69799819D01*
X129692857Y-69799819D02*
X129788095Y-69847438D01*
X129788095Y-69847438D02*
X129835714Y-69895057D01*
X129835714Y-69895057D02*
X129883333Y-69990295D01*
X129883333Y-69990295D02*
X129883333Y-70085533D01*
X129883333Y-70085533D02*
X129835714Y-70180771D01*
X129835714Y-70180771D02*
X129788095Y-70228390D01*
X129788095Y-70228390D02*
X129692857Y-70276009D01*
X129692857Y-70276009D02*
X129359524Y-70276009D01*
X130550000Y-69799819D02*
X130740476Y-69799819D01*
X130740476Y-69799819D02*
X130835714Y-69847438D01*
X130835714Y-69847438D02*
X130930952Y-69942676D01*
X130930952Y-69942676D02*
X130978571Y-70133152D01*
X130978571Y-70133152D02*
X130978571Y-70466485D01*
X130978571Y-70466485D02*
X130930952Y-70656961D01*
X130930952Y-70656961D02*
X130835714Y-70752200D01*
X130835714Y-70752200D02*
X130740476Y-70799819D01*
X130740476Y-70799819D02*
X130550000Y-70799819D01*
X130550000Y-70799819D02*
X130454762Y-70752200D01*
X130454762Y-70752200D02*
X130359524Y-70656961D01*
X130359524Y-70656961D02*
X130311905Y-70466485D01*
X130311905Y-70466485D02*
X130311905Y-70133152D01*
X130311905Y-70133152D02*
X130359524Y-69942676D01*
X130359524Y-69942676D02*
X130454762Y-69847438D01*
X130454762Y-69847438D02*
X130550000Y-69799819D01*
X131597619Y-69799819D02*
X131788095Y-69799819D01*
X131788095Y-69799819D02*
X131883333Y-69847438D01*
X131883333Y-69847438D02*
X131978571Y-69942676D01*
X131978571Y-69942676D02*
X132026190Y-70133152D01*
X132026190Y-70133152D02*
X132026190Y-70466485D01*
X132026190Y-70466485D02*
X131978571Y-70656961D01*
X131978571Y-70656961D02*
X131883333Y-70752200D01*
X131883333Y-70752200D02*
X131788095Y-70799819D01*
X131788095Y-70799819D02*
X131597619Y-70799819D01*
X131597619Y-70799819D02*
X131502381Y-70752200D01*
X131502381Y-70752200D02*
X131407143Y-70656961D01*
X131407143Y-70656961D02*
X131359524Y-70466485D01*
X131359524Y-70466485D02*
X131359524Y-70133152D01*
X131359524Y-70133152D02*
X131407143Y-69942676D01*
X131407143Y-69942676D02*
X131502381Y-69847438D01*
X131502381Y-69847438D02*
X131597619Y-69799819D01*
X132311905Y-69799819D02*
X132883333Y-69799819D01*
X132597619Y-70799819D02*
X132597619Y-69799819D01*
X130012424Y-81056982D02*
X130202900Y-81056982D01*
X130202900Y-81056982D02*
X130298138Y-81104601D01*
X130298138Y-81104601D02*
X130393376Y-81199839D01*
X130393376Y-81199839D02*
X130440995Y-81390315D01*
X130440995Y-81390315D02*
X130440995Y-81723648D01*
X130440995Y-81723648D02*
X130393376Y-81914124D01*
X130393376Y-81914124D02*
X130298138Y-82009363D01*
X130298138Y-82009363D02*
X130202900Y-82056982D01*
X130202900Y-82056982D02*
X130012424Y-82056982D01*
X130012424Y-82056982D02*
X129917186Y-82009363D01*
X129917186Y-82009363D02*
X129821948Y-81914124D01*
X129821948Y-81914124D02*
X129774329Y-81723648D01*
X129774329Y-81723648D02*
X129774329Y-81390315D01*
X129774329Y-81390315D02*
X129821948Y-81199839D01*
X129821948Y-81199839D02*
X129917186Y-81104601D01*
X129917186Y-81104601D02*
X130012424Y-81056982D01*
X131345757Y-82056982D02*
X130869567Y-82056982D01*
X130869567Y-82056982D02*
X130869567Y-81056982D01*
X131679091Y-81533172D02*
X132012424Y-81533172D01*
X132155281Y-82056982D02*
X131679091Y-82056982D01*
X131679091Y-82056982D02*
X131679091Y-81056982D01*
X131679091Y-81056982D02*
X132155281Y-81056982D01*
X132583853Y-82056982D02*
X132583853Y-81056982D01*
X132583853Y-81056982D02*
X132821948Y-81056982D01*
X132821948Y-81056982D02*
X132964805Y-81104601D01*
X132964805Y-81104601D02*
X133060043Y-81199839D01*
X133060043Y-81199839D02*
X133107662Y-81295077D01*
X133107662Y-81295077D02*
X133155281Y-81485553D01*
X133155281Y-81485553D02*
X133155281Y-81628410D01*
X133155281Y-81628410D02*
X133107662Y-81818886D01*
X133107662Y-81818886D02*
X133060043Y-81914124D01*
X133060043Y-81914124D02*
X132964805Y-82009363D01*
X132964805Y-82009363D02*
X132821948Y-82056982D01*
X132821948Y-82056982D02*
X132583853Y-82056982D01*
X125867268Y-83404819D02*
X126486315Y-83404819D01*
X126486315Y-83404819D02*
X126152982Y-83785771D01*
X126152982Y-83785771D02*
X126295839Y-83785771D01*
X126295839Y-83785771D02*
X126391077Y-83833390D01*
X126391077Y-83833390D02*
X126438696Y-83881009D01*
X126438696Y-83881009D02*
X126486315Y-83976247D01*
X126486315Y-83976247D02*
X126486315Y-84214342D01*
X126486315Y-84214342D02*
X126438696Y-84309580D01*
X126438696Y-84309580D02*
X126391077Y-84357200D01*
X126391077Y-84357200D02*
X126295839Y-84404819D01*
X126295839Y-84404819D02*
X126010125Y-84404819D01*
X126010125Y-84404819D02*
X125914887Y-84357200D01*
X125914887Y-84357200D02*
X125867268Y-84309580D01*
X126772030Y-83404819D02*
X127105363Y-84404819D01*
X127105363Y-84404819D02*
X127438696Y-83404819D01*
X127676792Y-83404819D02*
X128295839Y-83404819D01*
X128295839Y-83404819D02*
X127962506Y-83785771D01*
X127962506Y-83785771D02*
X128105363Y-83785771D01*
X128105363Y-83785771D02*
X128200601Y-83833390D01*
X128200601Y-83833390D02*
X128248220Y-83881009D01*
X128248220Y-83881009D02*
X128295839Y-83976247D01*
X128295839Y-83976247D02*
X128295839Y-84214342D01*
X128295839Y-84214342D02*
X128248220Y-84309580D01*
X128248220Y-84309580D02*
X128200601Y-84357200D01*
X128200601Y-84357200D02*
X128105363Y-84404819D01*
X128105363Y-84404819D02*
X127819649Y-84404819D01*
X127819649Y-84404819D02*
X127724411Y-84357200D01*
X127724411Y-84357200D02*
X127676792Y-84309580D01*
X126200601Y-85992438D02*
X126105363Y-85944819D01*
X126105363Y-85944819D02*
X125962506Y-85944819D01*
X125962506Y-85944819D02*
X125819649Y-85992438D01*
X125819649Y-85992438D02*
X125724411Y-86087676D01*
X125724411Y-86087676D02*
X125676792Y-86182914D01*
X125676792Y-86182914D02*
X125629173Y-86373390D01*
X125629173Y-86373390D02*
X125629173Y-86516247D01*
X125629173Y-86516247D02*
X125676792Y-86706723D01*
X125676792Y-86706723D02*
X125724411Y-86801961D01*
X125724411Y-86801961D02*
X125819649Y-86897200D01*
X125819649Y-86897200D02*
X125962506Y-86944819D01*
X125962506Y-86944819D02*
X126057744Y-86944819D01*
X126057744Y-86944819D02*
X126200601Y-86897200D01*
X126200601Y-86897200D02*
X126248220Y-86849580D01*
X126248220Y-86849580D02*
X126248220Y-86516247D01*
X126248220Y-86516247D02*
X126057744Y-86516247D01*
X126676792Y-86944819D02*
X126676792Y-85944819D01*
X126676792Y-85944819D02*
X127248220Y-86944819D01*
X127248220Y-86944819D02*
X127248220Y-85944819D01*
X127724411Y-86944819D02*
X127724411Y-85944819D01*
X127724411Y-85944819D02*
X127962506Y-85944819D01*
X127962506Y-85944819D02*
X128105363Y-85992438D01*
X128105363Y-85992438D02*
X128200601Y-86087676D01*
X128200601Y-86087676D02*
X128248220Y-86182914D01*
X128248220Y-86182914D02*
X128295839Y-86373390D01*
X128295839Y-86373390D02*
X128295839Y-86516247D01*
X128295839Y-86516247D02*
X128248220Y-86706723D01*
X128248220Y-86706723D02*
X128200601Y-86801961D01*
X128200601Y-86801961D02*
X128105363Y-86897200D01*
X128105363Y-86897200D02*
X127962506Y-86944819D01*
X127962506Y-86944819D02*
X127724411Y-86944819D01*
X125867268Y-89437200D02*
X126010125Y-89484819D01*
X126010125Y-89484819D02*
X126248220Y-89484819D01*
X126248220Y-89484819D02*
X126343458Y-89437200D01*
X126343458Y-89437200D02*
X126391077Y-89389580D01*
X126391077Y-89389580D02*
X126438696Y-89294342D01*
X126438696Y-89294342D02*
X126438696Y-89199104D01*
X126438696Y-89199104D02*
X126391077Y-89103866D01*
X126391077Y-89103866D02*
X126343458Y-89056247D01*
X126343458Y-89056247D02*
X126248220Y-89008628D01*
X126248220Y-89008628D02*
X126057744Y-88961009D01*
X126057744Y-88961009D02*
X125962506Y-88913390D01*
X125962506Y-88913390D02*
X125914887Y-88865771D01*
X125914887Y-88865771D02*
X125867268Y-88770533D01*
X125867268Y-88770533D02*
X125867268Y-88675295D01*
X125867268Y-88675295D02*
X125914887Y-88580057D01*
X125914887Y-88580057D02*
X125962506Y-88532438D01*
X125962506Y-88532438D02*
X126057744Y-88484819D01*
X126057744Y-88484819D02*
X126295839Y-88484819D01*
X126295839Y-88484819D02*
X126438696Y-88532438D01*
X126867268Y-89484819D02*
X126867268Y-88484819D01*
X126867268Y-88484819D02*
X127105363Y-88484819D01*
X127105363Y-88484819D02*
X127248220Y-88532438D01*
X127248220Y-88532438D02*
X127343458Y-88627676D01*
X127343458Y-88627676D02*
X127391077Y-88722914D01*
X127391077Y-88722914D02*
X127438696Y-88913390D01*
X127438696Y-88913390D02*
X127438696Y-89056247D01*
X127438696Y-89056247D02*
X127391077Y-89246723D01*
X127391077Y-89246723D02*
X127343458Y-89341961D01*
X127343458Y-89341961D02*
X127248220Y-89437200D01*
X127248220Y-89437200D02*
X127105363Y-89484819D01*
X127105363Y-89484819D02*
X126867268Y-89484819D01*
X127819649Y-89199104D02*
X128295839Y-89199104D01*
X127724411Y-89484819D02*
X128057744Y-88484819D01*
X128057744Y-88484819D02*
X128391077Y-89484819D01*
X125914887Y-91977200D02*
X126057744Y-92024819D01*
X126057744Y-92024819D02*
X126295839Y-92024819D01*
X126295839Y-92024819D02*
X126391077Y-91977200D01*
X126391077Y-91977200D02*
X126438696Y-91929580D01*
X126438696Y-91929580D02*
X126486315Y-91834342D01*
X126486315Y-91834342D02*
X126486315Y-91739104D01*
X126486315Y-91739104D02*
X126438696Y-91643866D01*
X126438696Y-91643866D02*
X126391077Y-91596247D01*
X126391077Y-91596247D02*
X126295839Y-91548628D01*
X126295839Y-91548628D02*
X126105363Y-91501009D01*
X126105363Y-91501009D02*
X126010125Y-91453390D01*
X126010125Y-91453390D02*
X125962506Y-91405771D01*
X125962506Y-91405771D02*
X125914887Y-91310533D01*
X125914887Y-91310533D02*
X125914887Y-91215295D01*
X125914887Y-91215295D02*
X125962506Y-91120057D01*
X125962506Y-91120057D02*
X126010125Y-91072438D01*
X126010125Y-91072438D02*
X126105363Y-91024819D01*
X126105363Y-91024819D02*
X126343458Y-91024819D01*
X126343458Y-91024819D02*
X126486315Y-91072438D01*
X127486315Y-91929580D02*
X127438696Y-91977200D01*
X127438696Y-91977200D02*
X127295839Y-92024819D01*
X127295839Y-92024819D02*
X127200601Y-92024819D01*
X127200601Y-92024819D02*
X127057744Y-91977200D01*
X127057744Y-91977200D02*
X126962506Y-91881961D01*
X126962506Y-91881961D02*
X126914887Y-91786723D01*
X126914887Y-91786723D02*
X126867268Y-91596247D01*
X126867268Y-91596247D02*
X126867268Y-91453390D01*
X126867268Y-91453390D02*
X126914887Y-91262914D01*
X126914887Y-91262914D02*
X126962506Y-91167676D01*
X126962506Y-91167676D02*
X127057744Y-91072438D01*
X127057744Y-91072438D02*
X127200601Y-91024819D01*
X127200601Y-91024819D02*
X127295839Y-91024819D01*
X127295839Y-91024819D02*
X127438696Y-91072438D01*
X127438696Y-91072438D02*
X127486315Y-91120057D01*
X128391077Y-92024819D02*
X127914887Y-92024819D01*
X127914887Y-92024819D02*
X127914887Y-91024819D01*
X100781009Y-87260475D02*
X100781009Y-86927142D01*
X101304819Y-86784285D02*
X101304819Y-87260475D01*
X101304819Y-87260475D02*
X100304819Y-87260475D01*
X100304819Y-87260475D02*
X100304819Y-86784285D01*
X100304819Y-86450951D02*
X101304819Y-85784285D01*
X100304819Y-85784285D02*
X101304819Y-86450951D01*
X101304819Y-85403332D02*
X100304819Y-85403332D01*
X100304819Y-85403332D02*
X100304819Y-85022380D01*
X100304819Y-85022380D02*
X100352438Y-84927142D01*
X100352438Y-84927142D02*
X100400057Y-84879523D01*
X100400057Y-84879523D02*
X100495295Y-84831904D01*
X100495295Y-84831904D02*
X100638152Y-84831904D01*
X100638152Y-84831904D02*
X100733390Y-84879523D01*
X100733390Y-84879523D02*
X100781009Y-84927142D01*
X100781009Y-84927142D02*
X100828628Y-85022380D01*
X100828628Y-85022380D02*
X100828628Y-85403332D01*
X109475714Y-101872342D02*
X109475714Y-102843771D01*
X109475714Y-102843771D02*
X109532857Y-102958057D01*
X109532857Y-102958057D02*
X109590000Y-103015200D01*
X109590000Y-103015200D02*
X109704285Y-103072342D01*
X109704285Y-103072342D02*
X109932857Y-103072342D01*
X109932857Y-103072342D02*
X110047142Y-103015200D01*
X110047142Y-103015200D02*
X110104285Y-102958057D01*
X110104285Y-102958057D02*
X110161428Y-102843771D01*
X110161428Y-102843771D02*
X110161428Y-101872342D01*
X110732857Y-103072342D02*
X110732857Y-101872342D01*
X110732857Y-101872342D02*
X111190000Y-101872342D01*
X111190000Y-101872342D02*
X111304285Y-101929485D01*
X111304285Y-101929485D02*
X111361428Y-101986628D01*
X111361428Y-101986628D02*
X111418571Y-102100914D01*
X111418571Y-102100914D02*
X111418571Y-102272342D01*
X111418571Y-102272342D02*
X111361428Y-102386628D01*
X111361428Y-102386628D02*
X111304285Y-102443771D01*
X111304285Y-102443771D02*
X111190000Y-102500914D01*
X111190000Y-102500914D02*
X110732857Y-102500914D01*
X111875714Y-103015200D02*
X112047143Y-103072342D01*
X112047143Y-103072342D02*
X112332857Y-103072342D01*
X112332857Y-103072342D02*
X112447143Y-103015200D01*
X112447143Y-103015200D02*
X112504285Y-102958057D01*
X112504285Y-102958057D02*
X112561428Y-102843771D01*
X112561428Y-102843771D02*
X112561428Y-102729485D01*
X112561428Y-102729485D02*
X112504285Y-102615200D01*
X112504285Y-102615200D02*
X112447143Y-102558057D01*
X112447143Y-102558057D02*
X112332857Y-102500914D01*
X112332857Y-102500914D02*
X112104285Y-102443771D01*
X112104285Y-102443771D02*
X111990000Y-102386628D01*
X111990000Y-102386628D02*
X111932857Y-102329485D01*
X111932857Y-102329485D02*
X111875714Y-102215200D01*
X111875714Y-102215200D02*
X111875714Y-102100914D01*
X111875714Y-102100914D02*
X111932857Y-101986628D01*
X111932857Y-101986628D02*
X111990000Y-101929485D01*
X111990000Y-101929485D02*
X112104285Y-101872342D01*
X112104285Y-101872342D02*
X112390000Y-101872342D01*
X112390000Y-101872342D02*
X112561428Y-101929485D01*
X117404819Y-38516904D02*
X118214342Y-38516904D01*
X118214342Y-38516904D02*
X118309580Y-38469285D01*
X118309580Y-38469285D02*
X118357200Y-38421666D01*
X118357200Y-38421666D02*
X118404819Y-38326428D01*
X118404819Y-38326428D02*
X118404819Y-38135952D01*
X118404819Y-38135952D02*
X118357200Y-38040714D01*
X118357200Y-38040714D02*
X118309580Y-37993095D01*
X118309580Y-37993095D02*
X118214342Y-37945476D01*
X118214342Y-37945476D02*
X117404819Y-37945476D01*
X118404819Y-36945476D02*
X118404819Y-37516904D01*
X118404819Y-37231190D02*
X117404819Y-37231190D01*
X117404819Y-37231190D02*
X117547676Y-37326428D01*
X117547676Y-37326428D02*
X117642914Y-37421666D01*
X117642914Y-37421666D02*
X117690533Y-37516904D01*
X126766086Y-104022855D02*
X127575609Y-104022855D01*
X127575609Y-104022855D02*
X127670847Y-103975236D01*
X127670847Y-103975236D02*
X127718467Y-103927617D01*
X127718467Y-103927617D02*
X127766086Y-103832379D01*
X127766086Y-103832379D02*
X127766086Y-103641903D01*
X127766086Y-103641903D02*
X127718467Y-103546665D01*
X127718467Y-103546665D02*
X127670847Y-103499046D01*
X127670847Y-103499046D02*
X127575609Y-103451427D01*
X127575609Y-103451427D02*
X126766086Y-103451427D01*
X126861324Y-103022855D02*
X126813705Y-102975236D01*
X126813705Y-102975236D02*
X126766086Y-102879998D01*
X126766086Y-102879998D02*
X126766086Y-102641903D01*
X126766086Y-102641903D02*
X126813705Y-102546665D01*
X126813705Y-102546665D02*
X126861324Y-102499046D01*
X126861324Y-102499046D02*
X126956562Y-102451427D01*
X126956562Y-102451427D02*
X127051800Y-102451427D01*
X127051800Y-102451427D02*
X127194657Y-102499046D01*
X127194657Y-102499046D02*
X127766086Y-103070474D01*
X127766086Y-103070474D02*
X127766086Y-102451427D01*
X102116666Y-95169819D02*
X102116666Y-95884104D01*
X102116666Y-95884104D02*
X102069047Y-96026961D01*
X102069047Y-96026961D02*
X101973809Y-96122200D01*
X101973809Y-96122200D02*
X101830952Y-96169819D01*
X101830952Y-96169819D02*
X101735714Y-96169819D01*
X103069047Y-95169819D02*
X102592857Y-95169819D01*
X102592857Y-95169819D02*
X102545238Y-95646009D01*
X102545238Y-95646009D02*
X102592857Y-95598390D01*
X102592857Y-95598390D02*
X102688095Y-95550771D01*
X102688095Y-95550771D02*
X102926190Y-95550771D01*
X102926190Y-95550771D02*
X103021428Y-95598390D01*
X103021428Y-95598390D02*
X103069047Y-95646009D01*
X103069047Y-95646009D02*
X103116666Y-95741247D01*
X103116666Y-95741247D02*
X103116666Y-95979342D01*
X103116666Y-95979342D02*
X103069047Y-96074580D01*
X103069047Y-96074580D02*
X103021428Y-96122200D01*
X103021428Y-96122200D02*
X102926190Y-96169819D01*
X102926190Y-96169819D02*
X102688095Y-96169819D01*
X102688095Y-96169819D02*
X102592857Y-96122200D01*
X102592857Y-96122200D02*
X102545238Y-96074580D01*
X115211905Y-92079819D02*
X115211905Y-91079819D01*
X115211905Y-91079819D02*
X115450000Y-91079819D01*
X115450000Y-91079819D02*
X115592857Y-91127438D01*
X115592857Y-91127438D02*
X115688095Y-91222676D01*
X115688095Y-91222676D02*
X115735714Y-91317914D01*
X115735714Y-91317914D02*
X115783333Y-91508390D01*
X115783333Y-91508390D02*
X115783333Y-91651247D01*
X115783333Y-91651247D02*
X115735714Y-91841723D01*
X115735714Y-91841723D02*
X115688095Y-91936961D01*
X115688095Y-91936961D02*
X115592857Y-92032200D01*
X115592857Y-92032200D02*
X115450000Y-92079819D01*
X115450000Y-92079819D02*
X115211905Y-92079819D01*
X116116667Y-91079819D02*
X116735714Y-91079819D01*
X116735714Y-91079819D02*
X116402381Y-91460771D01*
X116402381Y-91460771D02*
X116545238Y-91460771D01*
X116545238Y-91460771D02*
X116640476Y-91508390D01*
X116640476Y-91508390D02*
X116688095Y-91556009D01*
X116688095Y-91556009D02*
X116735714Y-91651247D01*
X116735714Y-91651247D02*
X116735714Y-91889342D01*
X116735714Y-91889342D02*
X116688095Y-91984580D01*
X116688095Y-91984580D02*
X116640476Y-92032200D01*
X116640476Y-92032200D02*
X116545238Y-92079819D01*
X116545238Y-92079819D02*
X116259524Y-92079819D01*
X116259524Y-92079819D02*
X116164286Y-92032200D01*
X116164286Y-92032200D02*
X116116667Y-91984580D01*
X126406905Y-109794819D02*
X126406905Y-108794819D01*
X126406905Y-108794819D02*
X126645000Y-108794819D01*
X126645000Y-108794819D02*
X126787857Y-108842438D01*
X126787857Y-108842438D02*
X126883095Y-108937676D01*
X126883095Y-108937676D02*
X126930714Y-109032914D01*
X126930714Y-109032914D02*
X126978333Y-109223390D01*
X126978333Y-109223390D02*
X126978333Y-109366247D01*
X126978333Y-109366247D02*
X126930714Y-109556723D01*
X126930714Y-109556723D02*
X126883095Y-109651961D01*
X126883095Y-109651961D02*
X126787857Y-109747200D01*
X126787857Y-109747200D02*
X126645000Y-109794819D01*
X126645000Y-109794819D02*
X126406905Y-109794819D01*
X127930714Y-109794819D02*
X127359286Y-109794819D01*
X127645000Y-109794819D02*
X127645000Y-108794819D01*
X127645000Y-108794819D02*
X127549762Y-108937676D01*
X127549762Y-108937676D02*
X127454524Y-109032914D01*
X127454524Y-109032914D02*
X127359286Y-109080533D01*
X110656666Y-116449819D02*
X110656666Y-117164104D01*
X110656666Y-117164104D02*
X110609047Y-117306961D01*
X110609047Y-117306961D02*
X110513809Y-117402200D01*
X110513809Y-117402200D02*
X110370952Y-117449819D01*
X110370952Y-117449819D02*
X110275714Y-117449819D01*
X111085238Y-116545057D02*
X111132857Y-116497438D01*
X111132857Y-116497438D02*
X111228095Y-116449819D01*
X111228095Y-116449819D02*
X111466190Y-116449819D01*
X111466190Y-116449819D02*
X111561428Y-116497438D01*
X111561428Y-116497438D02*
X111609047Y-116545057D01*
X111609047Y-116545057D02*
X111656666Y-116640295D01*
X111656666Y-116640295D02*
X111656666Y-116735533D01*
X111656666Y-116735533D02*
X111609047Y-116878390D01*
X111609047Y-116878390D02*
X111037619Y-117449819D01*
X111037619Y-117449819D02*
X111656666Y-117449819D01*
X116146008Y-103988673D02*
X116146008Y-102988673D01*
X116146008Y-102988673D02*
X116384103Y-102988673D01*
X116384103Y-102988673D02*
X116526960Y-103036292D01*
X116526960Y-103036292D02*
X116622198Y-103131530D01*
X116622198Y-103131530D02*
X116669817Y-103226768D01*
X116669817Y-103226768D02*
X116717436Y-103417244D01*
X116717436Y-103417244D02*
X116717436Y-103560101D01*
X116717436Y-103560101D02*
X116669817Y-103750577D01*
X116669817Y-103750577D02*
X116622198Y-103845815D01*
X116622198Y-103845815D02*
X116526960Y-103941054D01*
X116526960Y-103941054D02*
X116384103Y-103988673D01*
X116384103Y-103988673D02*
X116146008Y-103988673D01*
X117098389Y-103083911D02*
X117146008Y-103036292D01*
X117146008Y-103036292D02*
X117241246Y-102988673D01*
X117241246Y-102988673D02*
X117479341Y-102988673D01*
X117479341Y-102988673D02*
X117574579Y-103036292D01*
X117574579Y-103036292D02*
X117622198Y-103083911D01*
X117622198Y-103083911D02*
X117669817Y-103179149D01*
X117669817Y-103179149D02*
X117669817Y-103274387D01*
X117669817Y-103274387D02*
X117622198Y-103417244D01*
X117622198Y-103417244D02*
X117050770Y-103988673D01*
X117050770Y-103988673D02*
X117669817Y-103988673D01*
X109254761Y-85345056D02*
X109159523Y-85297437D01*
X109159523Y-85297437D02*
X109064285Y-85202199D01*
X109064285Y-85202199D02*
X108921428Y-85059341D01*
X108921428Y-85059341D02*
X108826190Y-85011722D01*
X108826190Y-85011722D02*
X108730952Y-85011722D01*
X108778571Y-85249818D02*
X108683333Y-85202199D01*
X108683333Y-85202199D02*
X108588095Y-85106960D01*
X108588095Y-85106960D02*
X108540476Y-84916484D01*
X108540476Y-84916484D02*
X108540476Y-84583151D01*
X108540476Y-84583151D02*
X108588095Y-84392675D01*
X108588095Y-84392675D02*
X108683333Y-84297437D01*
X108683333Y-84297437D02*
X108778571Y-84249818D01*
X108778571Y-84249818D02*
X108969047Y-84249818D01*
X108969047Y-84249818D02*
X109064285Y-84297437D01*
X109064285Y-84297437D02*
X109159523Y-84392675D01*
X109159523Y-84392675D02*
X109207142Y-84583151D01*
X109207142Y-84583151D02*
X109207142Y-84916484D01*
X109207142Y-84916484D02*
X109159523Y-85106960D01*
X109159523Y-85106960D02*
X109064285Y-85202199D01*
X109064285Y-85202199D02*
X108969047Y-85249818D01*
X108969047Y-85249818D02*
X108778571Y-85249818D01*
X110159523Y-85249818D02*
X109588095Y-85249818D01*
X109873809Y-85249818D02*
X109873809Y-84249818D01*
X109873809Y-84249818D02*
X109778571Y-84392675D01*
X109778571Y-84392675D02*
X109683333Y-84487913D01*
X109683333Y-84487913D02*
X109588095Y-84535532D01*
X127006666Y-116449819D02*
X127006666Y-117164104D01*
X127006666Y-117164104D02*
X126959047Y-117306961D01*
X126959047Y-117306961D02*
X126863809Y-117402200D01*
X126863809Y-117402200D02*
X126720952Y-117449819D01*
X126720952Y-117449819D02*
X126625714Y-117449819D01*
X128006666Y-117449819D02*
X127435238Y-117449819D01*
X127720952Y-117449819D02*
X127720952Y-116449819D01*
X127720952Y-116449819D02*
X127625714Y-116592676D01*
X127625714Y-116592676D02*
X127530476Y-116687914D01*
X127530476Y-116687914D02*
X127435238Y-116735533D01*
X102883095Y-102994819D02*
X102883095Y-103804342D01*
X102883095Y-103804342D02*
X102930714Y-103899580D01*
X102930714Y-103899580D02*
X102978333Y-103947200D01*
X102978333Y-103947200D02*
X103073571Y-103994819D01*
X103073571Y-103994819D02*
X103264047Y-103994819D01*
X103264047Y-103994819D02*
X103359285Y-103947200D01*
X103359285Y-103947200D02*
X103406904Y-103899580D01*
X103406904Y-103899580D02*
X103454523Y-103804342D01*
X103454523Y-103804342D02*
X103454523Y-102994819D01*
X104359285Y-103328152D02*
X104359285Y-103994819D01*
X104121190Y-102947200D02*
X103883095Y-103661485D01*
X103883095Y-103661485D02*
X104502142Y-103661485D01*
X130787056Y-93185492D02*
X130787056Y-93899777D01*
X130787056Y-93899777D02*
X130739437Y-94042634D01*
X130739437Y-94042634D02*
X130644199Y-94137873D01*
X130644199Y-94137873D02*
X130501342Y-94185492D01*
X130501342Y-94185492D02*
X130406104Y-94185492D01*
X131168009Y-93185492D02*
X131787056Y-93185492D01*
X131787056Y-93185492D02*
X131453723Y-93566444D01*
X131453723Y-93566444D02*
X131596580Y-93566444D01*
X131596580Y-93566444D02*
X131691818Y-93614063D01*
X131691818Y-93614063D02*
X131739437Y-93661682D01*
X131739437Y-93661682D02*
X131787056Y-93756920D01*
X131787056Y-93756920D02*
X131787056Y-93995015D01*
X131787056Y-93995015D02*
X131739437Y-94090253D01*
X131739437Y-94090253D02*
X131691818Y-94137873D01*
X131691818Y-94137873D02*
X131596580Y-94185492D01*
X131596580Y-94185492D02*
X131310866Y-94185492D01*
X131310866Y-94185492D02*
X131215628Y-94137873D01*
X131215628Y-94137873D02*
X131168009Y-94090253D01*
X113539241Y-98355716D02*
X113539241Y-99165239D01*
X113539241Y-99165239D02*
X113586860Y-99260477D01*
X113586860Y-99260477D02*
X113634479Y-99308097D01*
X113634479Y-99308097D02*
X113729717Y-99355716D01*
X113729717Y-99355716D02*
X113920193Y-99355716D01*
X113920193Y-99355716D02*
X114015431Y-99308097D01*
X114015431Y-99308097D02*
X114063050Y-99260477D01*
X114063050Y-99260477D02*
X114110669Y-99165239D01*
X114110669Y-99165239D02*
X114110669Y-98355716D01*
X114491622Y-98355716D02*
X115110669Y-98355716D01*
X115110669Y-98355716D02*
X114777336Y-98736668D01*
X114777336Y-98736668D02*
X114920193Y-98736668D01*
X114920193Y-98736668D02*
X115015431Y-98784287D01*
X115015431Y-98784287D02*
X115063050Y-98831906D01*
X115063050Y-98831906D02*
X115110669Y-98927144D01*
X115110669Y-98927144D02*
X115110669Y-99165239D01*
X115110669Y-99165239D02*
X115063050Y-99260477D01*
X115063050Y-99260477D02*
X115015431Y-99308097D01*
X115015431Y-99308097D02*
X114920193Y-99355716D01*
X114920193Y-99355716D02*
X114634479Y-99355716D01*
X114634479Y-99355716D02*
X114539241Y-99308097D01*
X114539241Y-99308097D02*
X114491622Y-99260477D01*
X131764503Y-105611204D02*
X131431170Y-105611204D01*
X131431170Y-106135014D02*
X131431170Y-105135014D01*
X131431170Y-105135014D02*
X131907360Y-105135014D01*
X132812122Y-106135014D02*
X132240694Y-106135014D01*
X132526408Y-106135014D02*
X132526408Y-105135014D01*
X132526408Y-105135014D02*
X132431170Y-105277871D01*
X132431170Y-105277871D02*
X132335932Y-105373109D01*
X132335932Y-105373109D02*
X132240694Y-105420728D01*
X119211905Y-92079819D02*
X119211905Y-91079819D01*
X119211905Y-91079819D02*
X119450000Y-91079819D01*
X119450000Y-91079819D02*
X119592857Y-91127438D01*
X119592857Y-91127438D02*
X119688095Y-91222676D01*
X119688095Y-91222676D02*
X119735714Y-91317914D01*
X119735714Y-91317914D02*
X119783333Y-91508390D01*
X119783333Y-91508390D02*
X119783333Y-91651247D01*
X119783333Y-91651247D02*
X119735714Y-91841723D01*
X119735714Y-91841723D02*
X119688095Y-91936961D01*
X119688095Y-91936961D02*
X119592857Y-92032200D01*
X119592857Y-92032200D02*
X119450000Y-92079819D01*
X119450000Y-92079819D02*
X119211905Y-92079819D01*
X120640476Y-91413152D02*
X120640476Y-92079819D01*
X120402381Y-91032200D02*
X120164286Y-91746485D01*
X120164286Y-91746485D02*
X120783333Y-91746485D01*
X131959862Y-75868075D02*
X131912243Y-75963313D01*
X131912243Y-75963313D02*
X131817005Y-76058551D01*
X131817005Y-76058551D02*
X131674147Y-76201408D01*
X131674147Y-76201408D02*
X131626528Y-76296646D01*
X131626528Y-76296646D02*
X131626528Y-76391884D01*
X131864624Y-76344265D02*
X131817005Y-76439503D01*
X131817005Y-76439503D02*
X131721766Y-76534741D01*
X131721766Y-76534741D02*
X131531290Y-76582360D01*
X131531290Y-76582360D02*
X131197957Y-76582360D01*
X131197957Y-76582360D02*
X131007481Y-76534741D01*
X131007481Y-76534741D02*
X130912243Y-76439503D01*
X130912243Y-76439503D02*
X130864624Y-76344265D01*
X130864624Y-76344265D02*
X130864624Y-76153789D01*
X130864624Y-76153789D02*
X130912243Y-76058551D01*
X130912243Y-76058551D02*
X131007481Y-75963313D01*
X131007481Y-75963313D02*
X131197957Y-75915694D01*
X131197957Y-75915694D02*
X131531290Y-75915694D01*
X131531290Y-75915694D02*
X131721766Y-75963313D01*
X131721766Y-75963313D02*
X131817005Y-76058551D01*
X131817005Y-76058551D02*
X131864624Y-76153789D01*
X131864624Y-76153789D02*
X131864624Y-76344265D01*
X130959862Y-75534741D02*
X130912243Y-75487122D01*
X130912243Y-75487122D02*
X130864624Y-75391884D01*
X130864624Y-75391884D02*
X130864624Y-75153789D01*
X130864624Y-75153789D02*
X130912243Y-75058551D01*
X130912243Y-75058551D02*
X130959862Y-75010932D01*
X130959862Y-75010932D02*
X131055100Y-74963313D01*
X131055100Y-74963313D02*
X131150338Y-74963313D01*
X131150338Y-74963313D02*
X131293195Y-75010932D01*
X131293195Y-75010932D02*
X131864624Y-75582360D01*
X131864624Y-75582360D02*
X131864624Y-74963313D01*
%TO.C,U1*%
X108750000Y-53550000D02*
X108750000Y-59750000D01*
X108750000Y-53550000D02*
X127150000Y-53550000D01*
X108750000Y-78400000D02*
X108750000Y-79400000D01*
X108750000Y-79400000D02*
X110250000Y-79400000D01*
X127150000Y-53550000D02*
X127150000Y-59750000D01*
X127150000Y-79400000D02*
X125650000Y-79400000D01*
X127150000Y-79400000D02*
X127150000Y-78400000D01*
X108750000Y-60425000D02*
X108250000Y-60425000D01*
X108750000Y-59925000D01*
X108750000Y-60425000D01*
G36*
X108750000Y-60425000D02*
G01*
X108250000Y-60425000D01*
X108750000Y-59925000D01*
X108750000Y-60425000D01*
G37*
%TO.C,C5*%
X101840000Y-73956252D02*
X101840000Y-73433748D01*
X103310000Y-73956252D02*
X103310000Y-73433748D01*
%TO.C,C2*%
X106835000Y-99006252D02*
X106835000Y-97583748D01*
X108655000Y-99006252D02*
X108655000Y-97583748D01*
%TO.C,R1*%
X123371359Y-89585000D02*
X123678641Y-89585000D01*
X123371359Y-90345000D02*
X123678641Y-90345000D01*
%TO.C,C9*%
X105397164Y-74095000D02*
X105612836Y-74095000D01*
X105397164Y-74815000D02*
X105612836Y-74815000D01*
%TO.C,U2*%
X121235000Y-96135000D02*
X121290000Y-96135000D01*
X121235000Y-100255000D02*
X121235000Y-96135000D01*
X121290000Y-100255000D02*
X121235000Y-100255000D01*
X131300000Y-96135000D02*
X131355000Y-96135000D01*
X131355000Y-96135000D02*
X131355000Y-100255000D01*
X131355000Y-100255000D02*
X131300000Y-100255000D01*
X121285000Y-100795000D02*
X120955000Y-101035000D01*
X120955000Y-100555000D01*
X121285000Y-100795000D01*
G36*
X121285000Y-100795000D02*
G01*
X120955000Y-101035000D01*
X120955000Y-100555000D01*
X121285000Y-100795000D01*
G37*
%TO.C,J5*%
X101070000Y-77070000D02*
X102450000Y-77070000D01*
X101070000Y-78450000D02*
X101070000Y-77070000D01*
X101070000Y-79720000D02*
X101070000Y-95070000D01*
X101070000Y-79720000D02*
X103830000Y-79720000D01*
X101070000Y-95070000D02*
X103830000Y-95070000D01*
X103830000Y-79720000D02*
X103830000Y-95070000D01*
%TO.C,C3*%
X119195000Y-96012836D02*
X119195000Y-95797164D01*
X119915000Y-96012836D02*
X119915000Y-95797164D01*
%TO.C,D3*%
X114465000Y-89215000D02*
X114465000Y-90685000D01*
X114465000Y-90685000D02*
X116750000Y-90685000D01*
X116750000Y-89215000D02*
X114465000Y-89215000D01*
%TO.C,R9*%
X133685000Y-114578641D02*
X133685000Y-114271359D01*
X134445000Y-114578641D02*
X134445000Y-114271359D01*
%TO.C,C7*%
X102183748Y-96735000D02*
X103606252Y-96735000D01*
X102183748Y-98555000D02*
X103606252Y-98555000D01*
%TO.C,R7*%
X117371359Y-82085000D02*
X117678641Y-82085000D01*
X117371359Y-82845000D02*
X117678641Y-82845000D01*
%TO.C,D1*%
X126235000Y-105135000D02*
X128055000Y-105135000D01*
X126235000Y-105185000D02*
X126235000Y-105135000D01*
X126235000Y-108255000D02*
X126235000Y-108205000D01*
X128055000Y-105135000D02*
X128055000Y-105185000D01*
X128055000Y-108205000D02*
X128055000Y-108255000D01*
X128055000Y-108255000D02*
X126235000Y-108255000D01*
X125695000Y-105185000D02*
X125455000Y-104855000D01*
X125935000Y-104855000D01*
X125695000Y-105185000D01*
G36*
X125695000Y-105185000D02*
G01*
X125455000Y-104855000D01*
X125935000Y-104855000D01*
X125695000Y-105185000D01*
G37*
%TO.C,R2*%
X124185000Y-86578641D02*
X124185000Y-86271359D01*
X124945000Y-86578641D02*
X124945000Y-86271359D01*
%TO.C,R10*%
X120185000Y-114578641D02*
X120185000Y-114271359D01*
X120945000Y-114578641D02*
X120945000Y-114271359D01*
%TO.C,J2*%
X104320000Y-104130000D02*
X106440000Y-104130000D01*
X104320000Y-104350000D02*
X104320000Y-104130000D01*
X104320000Y-107850000D02*
X104320000Y-110770000D01*
X104320000Y-113830000D02*
X104320000Y-117730000D01*
X107640000Y-103950000D02*
X108340000Y-103950000D01*
X115540000Y-104130000D02*
X117660000Y-104130000D01*
X117660000Y-104130000D02*
X117660000Y-104350000D01*
X117660000Y-107850000D02*
X117660000Y-110770000D01*
X117660000Y-113830000D02*
X117660000Y-117730000D01*
%TO.C,R3*%
X108685000Y-83078641D02*
X108685000Y-82771359D01*
X109445000Y-83078641D02*
X109445000Y-82771359D01*
%TO.C,R6*%
X129685000Y-74578641D02*
X129685000Y-74271359D01*
X130445000Y-74578641D02*
X130445000Y-74271359D01*
%TO.C,R11*%
X115685000Y-85078641D02*
X115685000Y-84771359D01*
X116445000Y-85078641D02*
X116445000Y-84771359D01*
%TO.C,C8*%
X101397164Y-104095000D02*
X101612836Y-104095000D01*
X101397164Y-104815000D02*
X101612836Y-104815000D01*
%TO.C,D2*%
X115235000Y-99635000D02*
X117055000Y-99635000D01*
X115235000Y-99685000D02*
X115235000Y-99635000D01*
X115235000Y-102755000D02*
X115235000Y-102705000D01*
X117055000Y-99635000D02*
X117055000Y-99685000D01*
X117055000Y-102705000D02*
X117055000Y-102755000D01*
X117055000Y-102755000D02*
X115235000Y-102755000D01*
X114695000Y-99685000D02*
X114455000Y-99355000D01*
X114935000Y-99355000D01*
X114695000Y-99685000D01*
G36*
X114695000Y-99685000D02*
G01*
X114455000Y-99355000D01*
X114935000Y-99355000D01*
X114695000Y-99685000D01*
G37*
%TO.C,R4*%
X133685000Y-71078641D02*
X133685000Y-70771359D01*
X134445000Y-71078641D02*
X134445000Y-70771359D01*
%TO.C,R8*%
X122371359Y-82085000D02*
X122678641Y-82085000D01*
X122371359Y-82845000D02*
X122678641Y-82845000D01*
%TO.C,Q1*%
X111765000Y-82135000D02*
X113285000Y-82135000D01*
X111765000Y-82185000D02*
X111765000Y-82135000D01*
X111765000Y-84085000D02*
X111765000Y-83305000D01*
X111765000Y-85255000D02*
X111765000Y-85205000D01*
X113285000Y-82135000D02*
X113285000Y-83135000D01*
X113285000Y-84255000D02*
X113285000Y-85255000D01*
X113285000Y-85255000D02*
X111765000Y-85255000D01*
X111225000Y-83315000D02*
X111465000Y-83645000D01*
X110985000Y-83645000D01*
X111225000Y-83315000D01*
G36*
X111465000Y-83645000D02*
G01*
X110985000Y-83645000D01*
X111225000Y-83315000D01*
X111465000Y-83645000D01*
G37*
%TO.C,J1*%
X122640000Y-112900000D02*
X122640000Y-114900000D01*
X122640000Y-116800000D02*
X122640000Y-118700000D01*
X122640000Y-118700000D02*
X132040000Y-118700000D01*
X132040000Y-112900000D02*
X132040000Y-114900000D01*
X132040000Y-116800000D02*
X132040000Y-118700000D01*
%TO.C,U4*%
X102735000Y-99635000D02*
X104555000Y-99635000D01*
X102735000Y-99685000D02*
X102735000Y-99635000D01*
X102735000Y-102755000D02*
X102735000Y-102705000D01*
X104555000Y-99635000D02*
X104555000Y-99685000D01*
X104555000Y-100805000D02*
X104555000Y-101585000D01*
X104555000Y-102705000D02*
X104555000Y-102755000D01*
X104555000Y-102755000D02*
X102735000Y-102755000D01*
X102195000Y-99685000D02*
X101955000Y-99355000D01*
X102435000Y-99355000D01*
X102195000Y-99685000D01*
G36*
X102195000Y-99685000D02*
G01*
X101955000Y-99355000D01*
X102435000Y-99355000D01*
X102195000Y-99685000D01*
G37*
%TO.C,C6*%
X125397164Y-103095000D02*
X125612836Y-103095000D01*
X125397164Y-103815000D02*
X125612836Y-103815000D01*
%TO.C,J3*%
X130020000Y-85220000D02*
X130020000Y-92900000D01*
X130020000Y-85220000D02*
X132680000Y-85220000D01*
X130020000Y-92900000D02*
X132680000Y-92900000D01*
X131350000Y-82620000D02*
X132680000Y-82620000D01*
X132680000Y-82620000D02*
X132680000Y-83950000D01*
X132680000Y-85220000D02*
X132680000Y-92900000D01*
%TO.C,C1*%
X105397164Y-72095000D02*
X105612836Y-72095000D01*
X105397164Y-72815000D02*
X105612836Y-72815000D01*
%TO.C,U3*%
X112145000Y-91685000D02*
X115905000Y-91685000D01*
X112145000Y-98505000D02*
X115905000Y-98505000D01*
X115905000Y-91685000D02*
X115905000Y-92945000D01*
X115905000Y-98505000D02*
X115905000Y-97245000D01*
X110865000Y-91785000D02*
X110625000Y-91455000D01*
X111105000Y-91455000D01*
X110865000Y-91785000D01*
G36*
X110865000Y-91785000D02*
G01*
X110625000Y-91455000D01*
X111105000Y-91455000D01*
X110865000Y-91785000D01*
G37*
%TO.C,R12*%
X109871359Y-86585000D02*
X110178641Y-86585000D01*
X109871359Y-87345000D02*
X110178641Y-87345000D01*
%TO.C,F1*%
X131772936Y-106715000D02*
X132977064Y-106715000D01*
X131772936Y-108535000D02*
X132977064Y-108535000D01*
%TO.C,C4*%
X111033748Y-99740000D02*
X111556252Y-99740000D01*
X111033748Y-101210000D02*
X111556252Y-101210000D01*
%TO.C,R5*%
X131685000Y-73078641D02*
X131685000Y-72771359D01*
X132445000Y-73078641D02*
X132445000Y-72771359D01*
%TO.C,D4*%
X118465000Y-89215000D02*
X118465000Y-90685000D01*
X118465000Y-90685000D02*
X120750000Y-90685000D01*
X120750000Y-89215000D02*
X118465000Y-89215000D01*
%TO.C,Q2*%
X129735000Y-78165000D02*
X130735000Y-78165000D01*
X129735000Y-79685000D02*
X129735000Y-78165000D01*
X129785000Y-79685000D02*
X129735000Y-79685000D01*
X131685000Y-79685000D02*
X130905000Y-79685000D01*
X131855000Y-78165000D02*
X132855000Y-78165000D01*
X132855000Y-78165000D02*
X132855000Y-79685000D01*
X132855000Y-79685000D02*
X132805000Y-79685000D01*
X130915000Y-80225000D02*
X131245000Y-79985000D01*
X131245000Y-80465000D01*
X130915000Y-80225000D01*
G36*
X131245000Y-80465000D02*
G01*
X130915000Y-80225000D01*
X131245000Y-79985000D01*
X131245000Y-80465000D01*
G37*
%TD*%
M02*
